<svg width="646" height="380" viewBox="0 0 646 380" fill="none" xmlns="http://www.w3.org/2000/svg">
<g clip-path="url(#clip0)">
<path d="M594.046 130.403H331.869V307.706H594.046V130.403Z" fill="#FFC253"/>
<path d="M331.869 130.403L455.004 242.619C459.581 246.737 466.562 246.737 471.025 242.619L594.16 130.403H331.869Z" fill="#E09736"/>
<path d="M594.159 307.706L463.014 170.897L594.159 296.038V307.706Z" fill="#E09736"/>
<path d="M331.869 307.706L463.015 170.897L331.869 296.038V307.706Z" fill="#E09736"/>
<path d="M331.869 130.403L453.058 232.781C458.78 237.586 467.134 237.586 472.856 232.781L594.16 130.403H331.869Z" fill="#FFC854"/>
<path d="M573.219 307.706C573.219 307.706 564.865 303.931 565.552 295.009C566.124 286.087 572.189 284.256 577.453 281.054C582.717 277.851 583.175 272.36 583.29 265.725C583.519 259.091 587.982 252.342 596.793 252.8C605.719 253.257 609.038 254.973 615.447 247.309C621.855 239.645 630.552 239.874 634.214 244.106C637.876 248.338 638.105 255.659 632.612 260.692C625.86 266.869 624.144 268.356 622.198 275.105C619.566 284.256 623.343 293.179 620.024 297.411C615.447 303.131 610.64 301.644 605.948 303.588C601.256 305.418 601.142 307.706 601.142 307.706H573.219Z" fill="#40C7A7"/>
<path d="M626.318 249.94C612.7 257.833 589.011 281.969 585.006 307.592" stroke="#3B55CE" stroke-width="1.05" stroke-miterlimit="10" stroke-linecap="round"/>
<path d="M423.421 49.7592C425.696 49.7592 427.54 47.9155 427.54 45.6412C427.54 43.3669 425.696 41.5232 423.421 41.5232C421.145 41.5232 419.301 43.3669 419.301 45.6412C419.301 47.9155 421.145 49.7592 423.421 49.7592Z" fill="#3B55CE"/>
<path d="M379.247 178.218C378.675 178.79 378.675 180.391 381.193 182.222C383.825 184.166 389.089 184.852 391.263 184.967C393.438 185.081 394.811 184.738 397.786 186.111C400.647 187.483 405.797 188.399 407.628 187.483C408.314 187.026 408.2 185.653 408.2 185.653L379.247 178.218Z" fill="#AAEEED"/>
<path d="M408.772 175.816C408.658 177.989 409.23 183.365 408.085 185.653C405.453 186.911 400.876 185.996 397.671 184.281C394.467 182.565 391.606 183.709 387.143 183.022C382.795 182.222 379.59 180.163 379.133 178.218C378.675 176.045 386.457 176.388 391.835 176.045C397.9 175.701 401.562 173.642 401.562 173.642L408.772 175.816Z" fill="#1E4174"/>
<path d="M398.816 177.76C398.816 177.76 398.472 174.672 397.328 173.414" stroke="#AAEEED" stroke-width="0.5508" stroke-miterlimit="10" stroke-linecap="round"/>
<path d="M394.581 178.332C394.581 178.332 394.238 175.244 393.094 173.986" stroke="#AAEEED" stroke-width="0.5508" stroke-miterlimit="10" stroke-linecap="round"/>
<path d="M390.347 178.904C390.347 178.904 390.004 175.816 388.859 174.557" stroke="#AAEEED" stroke-width="0.5508" stroke-miterlimit="10" stroke-linecap="round"/>
<path d="M411.061 168.152L408.772 175.816C408.772 175.816 407.742 175.93 407.17 176.273C406.598 176.616 405.682 178.104 404.996 177.989C402.249 177.417 401.562 173.528 401.562 173.528L403.508 165.521L411.061 168.152Z" fill="#FCDED6"/>
<path d="M450.542 100.319L449.512 108.441L421.246 107.869C421.246 107.869 414.609 107.754 412.663 114.503C410.718 121.252 403.279 166.55 403.279 166.55C403.279 166.55 407.285 169.524 411.29 168.838C411.29 168.838 424.565 141.385 426.51 133.835C428.456 126.285 427.426 119.88 427.426 119.88L461.414 116.905L450.542 100.319Z" fill="#0CC18E"/>
<path d="M409.459 196.406C409.459 197.206 410.489 198.35 413.693 197.893C416.897 197.435 421.246 194.232 422.848 192.86C424.45 191.373 425.251 190.229 428.341 189.199C431.431 188.17 435.665 185.31 436.352 183.365C436.466 182.565 435.551 181.65 435.551 181.65L409.459 196.406Z" fill="#AAEEED"/>
<path d="M429.027 174.1C430.515 175.701 434.635 179.247 435.436 181.535C434.521 184.281 430.515 186.797 426.968 187.827C423.42 188.856 422.276 191.716 418.614 194.232C414.952 196.635 411.29 197.55 409.573 196.406C407.742 195.147 413.464 190 417.126 185.882C421.246 181.421 422.276 177.417 422.276 177.417L429.027 174.1Z" fill="#1E4174"/>
<path d="M423.192 182.45C423.192 182.45 420.789 180.506 419.072 180.391" stroke="#AAEEED" stroke-width="0.5508" stroke-miterlimit="10" stroke-linecap="round"/>
<path d="M420.559 185.768C420.559 185.768 418.156 183.823 416.439 183.709" stroke="#AAEEED" stroke-width="0.5508" stroke-miterlimit="10" stroke-linecap="round"/>
<path d="M417.926 189.199C417.926 189.199 415.523 187.255 413.807 187.14" stroke="#AAEEED" stroke-width="0.5508" stroke-miterlimit="10" stroke-linecap="round"/>
<path d="M427.769 167.351L429.028 174.1C429.028 174.1 428.341 174.901 428.227 175.473C428.112 176.159 428.455 177.76 427.883 178.218C425.594 179.705 422.276 177.417 422.276 177.417L419.529 169.067L427.769 167.351Z" fill="#FCDED6"/>
<path d="M471.827 96.8874C472.857 99.5184 475.145 102.721 476.633 105.123C478.121 107.64 482.584 114.16 479.952 121.023C477.205 128.459 471.026 130.289 464.617 130.289C458.209 130.289 454.089 130.289 449.74 130.289C445.392 130.289 418.613 123.769 418.613 123.769C418.613 123.769 421.703 125.599 423.191 130.289C424.678 135.093 427.768 167.237 427.768 167.237C425.823 169.181 423.076 170.096 419.529 169.753C419.529 169.753 411.518 144.816 408.199 135.551C404.766 125.942 400.875 116.562 401.562 112.33C402.592 106.496 412.777 106.267 421.131 106.61C429.485 106.954 448.71 107.64 452.601 107.068L450.541 100.09L471.827 96.8874Z" fill="#0CC18E"/>
<path d="M462.786 19.9037C462.786 19.9037 458.552 16.3576 450.541 17.0439C444.247 17.6159 439.555 21.2763 438.182 25.9663C436.694 30.5418 437.152 39.0066 444.819 43.811C444.819 43.811 442.416 45.0692 445.048 47.5858C445.048 47.5858 440.928 48.6153 439.67 50.9031C438.296 53.1908 439.669 55.3642 440.471 57.8808C441.272 60.3973 441.5 60.8549 438.067 64.2866C434.634 67.7182 431.659 73.7809 436.58 81.5593C441.386 89.3377 449.854 95.8579 461.527 95.286C473.429 94.714 486.703 90.7104 490.136 72.5226C493.455 54.3347 482.011 50.1023 478.807 50.9031C478.807 50.9031 482.355 43.1246 481.21 33.0584C480.18 22.9922 475.26 18.531 471.14 18.1878C465.075 17.6159 462.786 19.9037 462.786 19.9037Z" fill="#001C45"/>
<path d="M460.269 55.8218C458.666 56.2793 456.034 56.7369 454.661 57.7664C453.288 58.7959 439.555 80.1866 439.555 80.1866C439.555 80.1866 426.967 60.5117 425.022 58.1096C423.076 55.593 413.464 52.6189 411.747 52.9621C409.573 53.4196 410.717 56.0506 411.175 57.8808C411.404 58.9103 411.862 61.6556 413.578 62.9139C415.409 64.1722 421.703 65.0873 421.703 65.0873C421.703 65.0873 433.032 88.9946 435.436 92.5406C436.923 94.8284 438.64 94.8284 441.386 91.7399C444.133 88.7658 455.004 74.4672 455.004 74.4672L460.269 55.8218Z" fill="#FCDED6"/>
<path d="M460.269 55.8218C457.752 56.7369 455.463 56.6225 454.204 58.224C452.945 59.8254 451.801 67.1463 451.801 67.1463C451.801 67.1463 458.095 65.888 459.697 62.5707C461.414 59.2535 461.414 56.2794 461.414 56.2794L460.269 55.8218Z" fill="#1769FF"/>
<path d="M468.966 51.7038C468.966 51.7038 469.996 52.5045 471.141 52.5045C472.514 52.7333 477.091 53.6484 478.007 55.3642C480.181 58.4527 478.007 68.4046 476.633 75.4967C475.832 79.7291 468.28 89.4521 473.429 99.1752C473.429 99.1752 461.757 106.039 449.97 100.205C448.711 94.3709 450.198 90.2529 450.198 83.7327C448.482 81.9025 446.88 78.5852 446.765 76.4118C446.193 68.4046 454.204 66.0024 460.498 56.9657C462.214 54.4491 463.588 54.5635 465.991 52.7333C467.479 51.7038 468.966 51.7038 468.966 51.7038Z" fill="#1769FF"/>
<path d="M472.629 55.2498C476.177 53.0765 479.038 55.8218 480.754 59.8254C482.471 63.829 491.283 88.7658 492.084 91.8543C492.885 94.9428 489.452 125.599 488.536 127.429C487.621 129.259 486.591 130.518 483.043 130.518C479.496 130.518 466.793 130.518 466.793 130.518C466.793 130.518 467.594 128.802 470.341 128.116C473.087 127.429 480.983 127.2 482.585 124.684C484.188 122.167 483.501 93.5701 483.501 93.5701C483.501 93.5701 473.659 72.637 471.485 67.3751C469.311 62.1132 470.112 56.7369 472.629 55.2498Z" fill="#FCDED6"/>
<path d="M474.231 53.8772C472.171 53.8772 467.365 58.6815 471.37 67.3751C471.37 67.3751 476.634 59.9398 481.44 61.77C481.44 61.77 479.381 52.6189 474.231 53.8772Z" fill="#1769FF"/>
<path d="M464.732 43.6966L468.394 47.0138L469.996 52.5045C469.996 52.5045 467.707 54.106 466.791 55.3642C465.761 56.9657 463.244 60.9693 460.383 61.3125C460.383 61.3125 460.726 57.7664 460.269 55.8218C459.811 53.8772 458.438 50.1023 458.438 50.1023L464.732 43.6966Z" fill="#FCDED6"/>
<path d="M449.283 36.7188C448.596 39.2354 445.735 42.6671 446.422 43.3534C446.88 43.811 449.397 43.6966 449.397 43.6966C449.397 43.6966 451.228 41.9807 450.542 39.5786C449.855 37.1764 449.283 36.7188 449.283 36.7188Z" fill="#FCDED6"/>
<path d="M455.462 21.1619C452.029 21.5051 448.596 26.1951 448.596 30.5418C448.71 34.8886 449.626 37.1764 449.397 40.2649C449.168 43.3534 449.168 46.3275 450.427 49.5304C451.228 51.7038 453.517 52.1613 456.492 51.475C459.238 50.7887 462.9 48.1577 463.816 47.357C464.617 46.5563 464.846 43.6966 464.846 43.6966C464.846 43.6966 468.851 43.1246 470.797 39.3498C472.513 35.6893 472.17 19.6749 455.462 21.1619Z" fill="#FCDED6"/>
<path d="M464.733 43.6966C464.733 43.6966 468.395 42.2095 468.052 38.0915C467.708 33.8591 461.986 33.7447 462.215 37.4052C462.215 37.4052 458.21 36.6045 455.807 33.7447C451.229 28.3685 450.771 24.0217 450.771 24.0217C451.687 17.3871 462.673 19.6749 462.673 19.6749C462.673 19.6749 468.166 17.2727 472.858 20.4756C476.177 22.7634 477.893 30.7706 475.261 37.5196C472.515 44.1541 468.395 46.8995 468.395 46.8995L464.733 43.6966Z" fill="#001C45"/>
<path d="M460.499 57.0801C460.613 58.224 458.324 60.8549 458.897 62.6851C459.469 64.5153 463.245 64.7441 465.191 62.6851C467.251 60.6261 468.395 54.2203 471.142 52.5045C471.142 52.5045 470.226 52.5045 469.768 51.3606L460.499 57.0801Z" fill="#FCDED6"/>
<path d="M419.986 50.9031C419.986 50.9031 418.842 60.6261 422.618 68.4046C422.962 69.2053 422.618 70.1204 421.932 70.4636L417.354 72.9801C416.324 73.5521 415.18 72.9801 414.951 71.8362C414.265 68.0614 413.235 59.5966 415.867 50.2167L419.986 50.9031Z" fill="#1E4174"/>
<path d="M415.181 53.4196C416.326 53.7628 418.042 54.4491 418.042 55.593C418.042 56.7369 416.211 56.7369 416.211 56.7369C416.211 56.7369 417.47 57.3089 417.585 58.1096C417.699 58.9103 416.898 59.711 415.639 59.711C415.639 59.711 416.898 60.1686 416.555 61.1981C416.211 62.342 414.38 61.4269 414.037 62.2276C414.037 62.2276 413.007 61.1981 412.893 58.7959C412.893 56.5081 415.181 53.4196 415.181 53.4196Z" fill="#FF9A8D"/>
<path d="M425.137 58.1096C423.992 55.9362 422.962 54.4491 420.445 53.4196C418.27 52.6189 417.24 50.9031 416.783 51.8182C416.21 52.6189 417.698 55.2499 420.101 56.0506L425.137 58.1096Z" fill="#FCDED6"/>
<path d="M412.893 50.5599L422.391 51.7038C424.794 52.047 426.282 39.4642 423.879 39.2354L414.609 37.634L412.893 50.5599Z" fill="#1E4174"/>
<path d="M414.609 37.634C411.176 37.2908 399.274 31.6857 396.642 21.6195C386.915 20.3612 382.338 56.3937 392.065 57.652C394.697 51.475 408.086 49.8736 412.892 50.4455C414.723 50.7887 416.44 37.9771 414.609 37.634Z" fill="#3B55CE"/>
<path d="M161.471 128.001C169.253 135.093 177.836 140.012 187.678 138.067C201.525 135.436 212.396 121.252 212.396 121.252C212.396 121.252 215.944 125.942 215.944 126.4C215.944 126.857 206.789 145.045 190.081 148.82C173.373 152.595 158.496 140.584 158.496 140.584L161.471 128.001Z" fill="#FCDED6"/>
<path d="M304.176 226.261C310.699 235.527 323.059 238.615 333.358 233.582L351.897 224.431C355.444 222.715 359.679 223.859 361.738 227.176L395.269 279.795C397.672 283.456 396.413 288.489 392.637 290.548C381.765 296.725 359.45 307.02 334.846 305.075C300.285 302.216 277.741 270.072 239.634 210.361C201.526 150.536 181.957 116.562 194.087 84.0759C202.67 60.9693 221.552 45.0692 231.737 37.8627C235.285 35.3462 240.32 36.2613 242.723 40.0361L276.254 92.655C278.313 95.9723 277.627 100.319 274.537 102.721L258.401 115.647C249.475 122.739 247.186 135.208 252.794 145.16L304.176 226.261Z" fill="#3B55CE"/>
<path d="M260.69 113.588L274.308 102.721C277.398 100.319 278.084 95.8579 276.024 92.655L258.286 64.8585L242.265 39.8074C239.862 36.3757 235.056 35.4606 231.508 37.9771C228.075 40.3793 223.612 43.9254 218.92 48.2721L260.69 113.588Z" fill="#2339A0"/>
<path d="M377.759 297.64C383.71 295.238 388.745 292.721 392.407 290.548C396.069 288.489 397.328 283.799 395.268 280.138L360.822 226.261C358.534 223.745 354.872 222.944 351.667 224.431L335.875 232.21L377.759 297.64Z" fill="#2339A0"/>
<path d="M162.044 128.344L168.338 133.034C168.338 133.034 171.199 141.842 166.393 146.303L158.039 141.27L162.044 128.344Z" fill="#1769FF"/>
<path d="M52.6413 307.706C52.6413 307.706 58.9353 303.016 62.9407 294.666C67.0604 285.972 63.3984 278.423 57.5621 279.566C51.3825 280.71 50.467 275.677 48.7504 269.271C46.6905 261.493 36.7345 250.512 28.6094 251.656C18.0811 253.028 24.7185 264.238 25.8629 268.356C26.8928 272.474 29.5249 277.05 23.1164 277.736C17.1656 278.308 14.648 283.685 19.2255 289.175C23.5741 294.437 28.3805 294.323 28.6094 299.585C28.8383 304.846 32.157 306.334 34.9035 307.706H52.6413Z" fill="#91DBAC"/>
<path d="M33.0723 260.921C33.0723 260.921 47.377 279.567 43.715 307.706" stroke="#3B55CE" stroke-width="1.05" stroke-miterlimit="10" stroke-linecap="round"/>
<path d="M180.126 307.706C180.126 307.706 184.131 302.215 181.728 294.437C178.638 284.371 169.14 279.681 172.573 273.046C175.434 267.556 183.788 270.301 188.251 277.736C192.485 284.828 192.829 299.928 186.077 307.706H180.126Z" fill="#40C7A7"/>
<path d="M179.096 275.906C179.096 275.906 192.027 289.862 183.559 307.706" stroke="#3B55CE" stroke-width="1.05" stroke-miterlimit="10" stroke-linecap="round"/>
<path d="M189.623 307.706C189.623 307.706 199.35 301.758 204.729 289.404C210.107 277.05 210.336 262.637 204.729 257.604C199.465 252.8 193.285 255.774 191.683 264.124C190.081 272.474 193.743 293.751 182.871 307.706H189.623Z" fill="#22A482"/>
<path d="M199.923 259.892C199.923 259.892 201.525 272.474 197.863 285.972C194.087 299.47 187.221 307.706 187.221 307.706" stroke="#3B55CE" stroke-width="1.05" stroke-miterlimit="10" stroke-linecap="round"/>
<path d="M327.178 307.706C327.178 307.706 327.407 290.433 313.675 274.419C300.057 258.405 284.379 252.685 270.875 257.489C260.804 261.15 263.437 272.703 271.676 277.736C281.403 283.57 317.794 285.972 319.168 307.706H327.178Z" fill="#91DBAC"/>
<path d="M272.363 265.268C290.902 264.238 319.397 281.282 323.288 307.706" stroke="#3B55CE" stroke-width="1.05" stroke-miterlimit="10" stroke-linecap="round"/>
<path d="M331.412 307.706C331.412 307.706 340.453 298.098 338.622 279.681C336.905 261.264 320.655 256.689 317.68 265.611C315.391 272.589 331.183 288.946 325.576 307.821H331.412V307.706Z" fill="#3DC19A"/>
<path d="M325.576 266.869C329.009 271.33 335.761 289.861 328.895 307.706" stroke="#3B55CE" stroke-width="1.05" stroke-miterlimit="10" stroke-linecap="round"/>
<path d="M613.157 309.994H9.38445C8.12564 309.994 7.0957 308.964 7.0957 307.706C7.0957 306.448 8.12564 305.418 9.38445 305.418H613.157C614.416 305.418 615.446 306.448 615.446 307.706C615.446 308.964 614.416 309.994 613.157 309.994Z" fill="#638BE2"/>
<path d="M540.031 367.532H146.365C126.339 367.532 110.203 351.288 110.203 331.385V309.994H576.193V331.27C576.193 351.288 559.943 367.532 540.031 367.532Z" fill="#E5F7FF"/>
<path d="M175.319 302.902C175.662 303.588 175.433 305.075 172.572 306.219C169.711 307.363 164.676 306.905 162.616 306.448C160.556 305.99 159.412 305.418 156.322 306.105C153.347 306.677 148.426 306.448 146.938 305.19C146.366 304.618 146.824 303.359 146.824 303.359L175.319 302.902Z" fill="#FD9F00"/>
<path d="M148.426 294.208C147.968 296.267 146.366 301.072 146.824 303.474C148.883 305.304 153.461 305.418 156.78 304.503C160.213 303.703 162.502 305.418 166.736 305.647C170.855 305.876 174.403 304.732 175.204 303.016C176.12 301.072 168.91 299.699 163.875 298.098C158.382 296.382 155.406 293.636 155.406 293.636L148.426 294.208Z" fill="#333333"/>
<path d="M148.426 285.972V294.208C148.426 294.208 149.341 294.551 149.799 295.009C150.142 295.467 150.715 297.068 151.401 297.068C154.033 297.182 155.635 293.636 155.635 293.636L156.665 286.201L148.426 285.972Z" fill="#FCDED6"/>
<path d="M82.2804 305.075C81.7083 305.647 80.2206 305.762 78.3896 303.359C76.5586 300.957 75.6431 295.924 75.5286 293.865C75.4142 291.806 75.6431 290.433 74.2698 287.688C72.8966 284.943 71.8666 280.138 72.6677 278.423C73.1254 277.736 74.3842 277.736 74.3842 277.736L82.2804 305.075Z" fill="#FD9F00"/>
<path d="M83.6543 276.821C81.5945 276.936 76.4448 276.592 74.2705 277.736C73.1261 280.253 74.156 284.6 75.8726 287.688C77.5891 290.777 76.5592 293.522 77.4747 297.64C78.3902 301.758 80.3356 304.732 82.2811 305.075C84.341 305.418 83.8832 298.098 83.9976 292.836C84.2265 287.002 86.0575 283.57 86.0575 283.57L83.6543 276.821Z" fill="#333333"/>
<path d="M88.9176 273.046L83.6535 276.821C83.6535 276.821 83.6535 277.851 83.3101 278.308C82.9668 278.766 81.5936 279.795 81.8225 280.367C82.3946 282.998 86.1711 283.57 86.1711 283.57L93.4951 279.681L88.9176 273.046Z" fill="#FCDED6"/>
<path d="M164.332 169.067C155.177 169.067 148.311 169.753 148.311 169.753C145.336 171.011 140.3 177.76 138.813 181.993C137.325 186.225 139.499 192.173 140.3 195.834C144.649 216.195 148.998 230.265 150.714 238.272C151.744 243.191 148.082 243.992 148.082 251.77C148.082 262.98 148.54 286.773 148.54 286.773C148.54 286.773 151.973 288.832 156.551 287.459C156.551 287.459 163.417 248.224 164.218 243.648C165.477 236.327 165.82 233.353 166.049 220.656C166.049 202.926 164.332 169.067 164.332 169.067Z" fill="#3DCDA5"/>
<path d="M164.218 184.509C162.73 191.716 152.316 200.295 152.316 200.295C151.172 203.612 136.066 255.316 133.549 257.375C131.031 259.32 93.4955 279.681 93.4955 279.681C91.6645 278.766 90.6345 277.279 89.9479 275.906C89.4902 274.877 89.1469 273.961 89.0324 273.504C89.0324 273.39 88.918 273.161 88.918 273.161V273.046C88.918 273.046 108.143 252.685 112.721 250.512C117.642 248.11 120.503 247.538 120.503 247.538C125.652 223.516 125.538 204.756 129.658 191.487C130.459 189.085 131.26 186.797 132.061 184.967C133.091 182.565 134.006 180.62 134.579 179.019C134.807 178.332 135.151 177.646 135.38 176.96C135.608 176.273 135.837 175.701 135.952 175.244C136.066 174.901 136.181 174.557 136.295 174.214C136.753 172.727 137.096 171.469 137.439 170.325C137.554 169.868 137.783 169.296 138.012 168.838C138.126 168.609 138.241 168.38 138.355 168.037C138.469 167.809 138.584 167.465 138.698 167.237L145.908 172.613L149.341 175.129L164.218 184.509Z" fill="#3DCDA5"/>
<path d="M151.172 116.334L159.984 123.883L165.133 111.758L154.491 105.695L151.172 116.334Z" fill="#FCDED6"/>
<path d="M159.868 123.654C161.928 125.37 163.187 127.772 163.53 130.518C163.988 134.865 164.446 141.27 164.789 150.65C165.132 159.115 165.933 183.709 165.933 183.709C165.933 183.709 159.411 187.941 148.539 187.14C138.125 186.34 133.662 181.192 133.662 181.192C133.662 181.192 134.692 146.532 138.125 132.92C143.16 118.85 151.171 116.448 151.171 116.448L159.868 123.654Z" fill="#1769FF"/>
<path d="M170.396 95.7435C170.969 96.6586 173.83 100.662 174.745 101.921C175.661 103.064 171.999 103.408 171.999 103.408L170.396 95.7435Z" fill="#FCDED6"/>
<path d="M154.489 105.695C154.489 105.695 155.061 107.068 155.748 108.098C156.32 109.127 165.132 112.673 167.421 112.902C169.709 113.131 172.799 112.673 172.227 105.009C171.655 97.345 169.709 90.7104 164.56 87.1644C159.41 83.7327 152.2 87.5075 149.111 92.4263C145.906 97.4594 149.225 107.068 154.489 105.695Z" fill="#FCDED6"/>
<path d="M154.49 105.695L153.345 109.241C153.345 109.241 152.43 109.699 150.256 106.954C147.852 103.98 143.389 98.7176 143.847 95.5147C144.419 91.168 149.34 89.6809 149.34 89.6809C149.34 89.6809 151.858 81.6737 161.699 77.4413C171.541 73.2089 175.89 80.301 168.337 85.5629C168.337 85.5629 173.601 88.1939 170.282 90.1385C166.964 92.0831 157.465 91.8543 157.465 91.8543C157.465 91.8543 162.157 93.6845 160.784 94.9428C159.411 96.2011 153.345 95.7435 153.345 95.7435L154.147 98.7176C154.147 98.7176 151.743 97.9169 150.37 99.5184C148.654 101.463 151.171 106.725 154.49 105.695Z" fill="#001C45"/>
<path d="M148.425 80.301C148.425 80.301 145.45 86.5924 151.057 90.9392C151.057 90.9392 145.564 90.7104 144.42 85.5629" stroke="#001C45" stroke-width="0.7875" stroke-miterlimit="10" stroke-linecap="round"/>
<path d="M151.514 100.548C151.972 100.205 152.887 99.9759 153.459 100.205C153.688 100.319 153.459 100.662 153.231 100.662C152.201 100.548 150.942 100.891 150.827 102.149C150.827 102.264 150.713 102.149 150.713 102.149C150.713 101.463 150.942 101.005 151.514 100.548Z" fill="#BA5964"/>
<path d="M151.972 100.548C152.086 100.433 152.429 100.662 152.429 100.777C152.315 100.891 152.086 101.12 152.086 101.349C151.972 101.806 151.972 102.149 152.2 102.492C152.544 103.408 153.23 103.98 154.26 103.865C154.26 103.865 154.375 103.865 154.26 103.865C153.459 104.323 152.315 103.751 151.972 103.064C151.399 102.378 151.171 101.234 151.972 100.548Z" fill="#BA5964"/>
<path d="M147.281 123.998C145.107 125.141 142.246 131.318 144.306 138.067C146.366 144.816 148.884 151.68 148.884 151.68C148.884 151.68 159.297 149.278 162.044 142.643C162.044 142.643 158.382 133.721 156.665 130.06C154.949 126.4 152.66 121.138 147.281 123.998Z" fill="#1769FF"/>
<path d="M158.153 163.004C160.442 165.292 163.646 167.923 165.363 168.609C165.248 164.72 165.019 161.403 164.905 157.742L157.123 147.447L151.974 146.075L150.143 151.337C150.257 151.337 154.377 159.229 158.153 163.004Z" fill="#1769FF"/>
<path d="M149.684 123.883C144.763 125.141 143.161 132.234 148.081 143.101C152.773 153.51 160.441 163.119 165.133 166.321C169.825 169.524 188.02 168.495 203.126 164.034C203.126 164.034 211.823 160.945 214.226 158.772C219.605 153.967 219.834 147.676 215.943 148.706C212.052 149.621 205.758 153.853 205.758 153.853C205.758 153.853 204.156 150.65 202.897 148.134C202.897 148.134 201.867 148.362 201.409 150.65C201.066 152.938 201.066 156.026 200.379 156.484C198.663 157.742 174.288 159.801 171.427 156.827C168.108 153.624 163.416 144.931 159.983 137.038C156.321 128.344 154.719 122.625 149.684 123.883Z" fill="#FCDED6"/>
<path d="M148.082 122.854C145.908 123.998 143.047 130.175 145.107 136.924C147.167 143.672 149.684 150.536 149.684 150.536C149.684 150.536 159.412 149.049 163.531 143.444C163.531 143.444 159.068 132.462 157.352 128.916C155.75 125.256 153.575 119.88 148.082 122.854Z" fill="#1769FF"/>
</g>
<defs>
<clipPath id="clip0">
<rect width="646" height="380" fill="white"/>
</clipPath>
</defs>
</svg>
