<?xml version="1.0" encoding="utf-8"?>
<!-- Generator: Adobe Illustrator 24.0.0, SVG Export Plug-In . SVG Version: 6.00 Build 0)  -->
<svg version="1.1" id="Layer_1" xmlns="http://www.w3.org/2000/svg" xmlns:xlink="http://www.w3.org/1999/xlink" x="0px" y="0px"
	 viewBox="0 0 914.21 767.93" style="enable-background:new 0 0 914.21 767.93;" xml:space="preserve">
<style type="text/css">
	.st0{fill:#F0FAF4;}
	.st1{fill:#52D2BC;}
	.st2{fill:none;stroke:#00AD9F;stroke-linecap:round;stroke-linejoin:round;stroke-miterlimit:10;}
	.st3{fill:#5193F4;}
	.st4{fill:none;stroke:#0B43A4;stroke-linecap:round;stroke-linejoin:round;stroke-miterlimit:10;}
	.st5{fill:#00AD9F;}
	.st6{opacity:0.2;fill:#5275A0;}
	.st7{fill:#C8DBFB;}
	.st8{fill:none;stroke:#0B43A4;stroke-linecap:round;stroke-linejoin:round;stroke-miterlimit:10;stroke-dasharray:4;}
	.st9{fill:none;stroke:#C8DBFB;stroke-linecap:round;stroke-linejoin:round;stroke-miterlimit:10;stroke-dasharray:4;}
	.st10{fill:#0B43A4;}
	.st11{fill:#21356B;}
	
		.st12{fill:none;stroke:#C8DBFB;stroke-width:2;stroke-linecap:round;stroke-linejoin:round;stroke-miterlimit:10;stroke-dasharray:4;}
	.st13{fill:#D8D8D8;}
	.st14{fill:url(#SVGID_1_);}
	.st15{fill:url(#SVGID_2_);}
	.st16{fill:url(#SVGID_3_);}
	.st17{fill:url(#SVGID_4_);}
	.st18{fill:url(#SVGID_5_);}
	.st19{fill:url(#SVGID_6_);}
	.st20{fill:url(#SVGID_7_);}
	.st21{fill:url(#SVGID_8_);}
	.st22{fill:url(#SVGID_9_);}
	.st23{fill:url(#SVGID_10_);}
	.st24{fill:url(#SVGID_11_);}
	.st25{fill:url(#SVGID_12_);}
	.st26{fill:url(#SVGID_13_);}
	.st27{fill:url(#SVGID_14_);}
	.st28{fill:url(#SVGID_15_);}
	.st29{fill:url(#SVGID_16_);}
	.st30{fill:url(#SVGID_17_);}
	.st31{fill:url(#SVGID_18_);}
	.st32{fill:#FFFFFF;}
	.st33{fill:#0056EC;}
	.st34{fill:#0C2340;}
	.st35{fill:#EF832B;}
	.st36{fill:#FFB9A3;}
	.st37{fill:#047F76;}
	.st38{fill:#009790;}
	.st39{fill:#4A49CA;}
	.st40{fill:#D8742A;}
	.st41{opacity:0.67;}
	.st42{fill:#4E87C3;}
	.st43{fill:#ECE8EC;}
	.st44{fill:#F5D09F;}
	.st45{fill:#151E1C;}
	.st46{fill:#E9BB88;}
	.st47{fill:#FFD970;}
	.st48{fill:#576D8D;}
	.st49{fill:#251F3E;}
	.st50{fill:#312C48;}
	.st51{fill:#44263D;}
	.st52{fill:#FFB100;}
	.st53{fill:#7DADDF;}
	.st54{fill:#93BCEB;}
	.st55{fill:#CCE1F7;}
	.st56{fill:#30363D;}
	.st57{fill:#E9D6B8;}
	.st58{fill:#FEB04C;}
	.st59{fill:#0253A2;}
	.st60{fill:#F4DA80;}
	.st61{fill:#163F59;}
	.st62{fill:#474F59;}
	.st63{fill:#596273;}
	.st64{fill:#F1FAFC;}
	.st65{fill:#E5E8EC;}
	.st66{fill:#808080;}
	.st67{fill:#B0ACA3;}
</style>
<path class="st0" d="M875.69,449.61c-14.05-39.18-36.19-51.11-57.24-76.24c-25.71-30.7-43.05-53.01-36.38-92.49
	c10.91-64.52,15.58-225.42-155.22-204.39c-61.22,7.54-109.6,54.45-144.79,101.28c-29.95,39.85-83.82,43.36-127.18,52.65
	c-53.27,11.41-107.54,28.66-156.83,53.92C96.54,336.37,66.22,411.17,70.36,506.87c1.25,28.91,5.34,74.45,54.18,127.75
	c65.92,71.93,161.71,81.56,277.01,48.53c26.39-7.56,51.34-19.42,77.3-28.35c26.97-9.28,55.03-15.37,83.42-18.11
	c66.22-6.4,134.86,5.18,198.39-14.59c33.59-10.45,64.44-29.59,88.73-55.03C879.73,535.28,890.53,490.97,875.69,449.61z"/>
<g>
	<path class="st1" d="M772.87,391.14c7.49-12.32,3.66-28.18,6.27-42.36c2-10.9,8.07-21.01,16.75-27.91
		c5.45-4.33,13.1-7.42,19.25-4.18c1.33,0.7,2.92,1.69,4.2,0.9c0.77-0.47,1.07-1.42,1.25-2.3c1.56-7.66-2.12-16.03,0.89-23.24
		c1.62-3.88,4.97-6.79,8.52-9.05c6.84-4.36,14.85-6.88,22.96-7.2c2.15-0.09,4.39,0,6.32,0.96c3.48,1.74,5.07,6.08,4.6,9.94
		c-0.47,3.87-2.6,7.32-4.96,10.42c-7.86,10.28-19.38,19.15-20.9,32c-0.19,1.62-0.19,3.34,0.55,4.79c0.72,1.4,2.06,2.41,2.82,3.79
		c2.42,4.45-2.26,9.5-6.83,11.69c-4.17,2-8.7,3.25-13.31,3.68c-3.17,0.3-6.76,0.37-8.91,2.72c-3.98,4.32,0.59,11.24-0.24,17.06
		c-0.52,3.63-3.16,6.56-5.8,9.11c-4.91,4.72-10.28,8.96-16.02,12.64c-4.65,2.98-9.57,5.61-13.7,9.29
		c-4.12,3.68-7.45,8.65-7.72,14.16"/>
	<path class="st2" d="M782.73,379.16c1.22-5.97,4-11.5,6.75-16.94c4.3-8.5,8.68-17.13,15.18-24.11c4.93-5.3,10.94-9.49,15.96-14.7
		c3.57-3.72,6.62-7.94,9.01-12.51c1.3-2.48,2.42-5.08,4.17-7.26c2.08-2.59,4.92-4.43,7.39-6.65c3.34-2.99,6.03-6.7,7.84-10.81"/>
</g>
<g>
	<path class="st3" d="M880.38,399.7c-1.68,6.49-4.19,12.91-8.49,18.06c-2.97,3.55-6.67,6.35-10.71,8.64
		c-2.08,1.19-4.27,2.23-6.48,3.16c-8.57,3.6-17.79,5.64-27.07,6c-13.53,0.51-27.44-2.48-40.42,1.38
		c-5.96,1.77-11.45,4.98-15.95,9.24c-2.82,2.64-5.24,5.7-7.16,9.05l1.77-11.23c3.27-12.08,6.61-24.38,13.3-34.96
		c4.31-6.86,9.91-12.83,15.87-18.32c9.52-8.79,20.08-16.53,31.73-22.18c9.42-4.57,19.88-7.79,30.29-6.52
		c10.39,1.26,20.61,7.83,23.86,17.79C882.98,386.21,882.07,393.19,880.38,399.7z"/>
	<path class="st4" d="M774.7,435.46c9.94-14.71,24.83-26.01,41.68-31.64c10.49-3.5,21.59-4.83,32.22-7.9
		c10.63-3.07,21.23-8.28,27.47-17.42"/>
</g>
<g>
	<path class="st1" d="M781.25,543.33c0.59-15.1,8.4-29.05,17.88-40.82c7.91-9.82,17.45-18.8,29.24-23.28
		c3.69-1.4,7.75-2.34,11.58-1.4c3.84,0.94,7.31,4.22,7.38,8.17c0.06,3.33-2.18,6.24-4.53,8.6c-7.75,7.76-17.76,12.74-27.15,18.41
		c-16.13,9.75-31.46,22.76-37.87,40.49"/>
	<path class="st2" d="M787.22,530.12c9.86-21.99,35.38-41.65,52.21-44.11"/>
</g>
<g>
	<path class="st5" d="M775.09,555.34c-0.13-2.53,8.12-9.15,9.98-10.84c10.31-9.35,22.56-16.22,35.5-20.28
		c5.24-1.64,10.8-2.84,16.04-1.57s10.04,5.56,10.56,11.21c0.5,5.48-3.18,10.84-7.87,13.49c-4.69,2.65-10.18,3.05-15.41,2.75
		c-8.09-0.47-16.02-2.48-24.14-2.42S780.24,548.56,775.09,555.34z"/>
	<path class="st2" d="M783.49,547.66c16.59-8.99,41.66-14.83,59.87-12.63"/>
</g>
<g>
	<path class="st6" d="M861.18,426.4c-2.08,1.19-4.27,2.23-6.48,3.16c-8.57,3.6-17.79,5.64-27.07,6
		c-13.53,0.51-27.44-2.48-40.42,1.38c-5.96,1.77-11.45,4.98-15.95,9.24c-0.45,0.22-0.9,0.47-1.36,0.73
		c-1.08-9.16,21.76-21.1,28.7-24.21c12.53-5.61,26.5-8.11,40.19-7.01c6,0.48,12.15,1.66,17.09,5.07
		C858,422.22,859.86,424.18,861.18,426.4z"/>
	<path class="st1" d="M838.79,421.17c5.99,0.48,12.14,1.65,17.09,5.07c4.95,3.41,8.43,9.5,7.28,15.41
		c-1.34,6.87-8.45,11.35-15.41,12.19s-13.9-1.07-20.76-2.48c-15.18-3.13-30.85-3.84-46.26-2.11c-3.84,0.43-7.49,1.19-10.85,3.16
		c-1.08-9.17,21.77-21.1,28.71-24.21C811.13,422.57,825.09,420.07,838.79,421.17z"/>
	<path class="st2" d="M775.83,446.62c11.34-9.97,40.46-16.74,61.06-14.56c6.2,0.66,12.46,2.51,17.23,6.53"/>
</g>
<ellipse class="st7" cx="383.37" cy="610.54" rx="66.12" ry="6.18"/>
<ellipse class="st7" cx="723.04" cy="610.54" rx="66.12" ry="6.18"/>
<path class="st8" d="M722.02,274.6l121.55-0.25c14.26-0.03,25.85,11.51,25.88,25.77v0c0.03,14.26-11.51,25.85-25.77,25.88
	l-83.14,0.17"/>
<path class="st8" d="M303.31,372.62l-96.77,0.2c-9.17,0.02-16.58,7.46-16.56,16.63l0,0c0.02,9.17,7.46,16.58,16.63,16.56l28.22-0.06
	"/>
<g>
	<path class="st9" d="M148.85,447.57c-33.15,0.07-33.84,49.52,8.34,49.43c42.18-0.09,595.57-1.23,621.66-1.28
		c26.09-0.05,28.85-40.77-3.41-40.7c-64.2,0.13-66.33-30.49-30.69-30.56"/>
	<path class="st3" d="M156.61,446.19c0.76,4.46-2.24,8.69-6.7,9.45c-4.46,0.76-8.69-2.24-9.45-6.7c-0.76-4.46,2.24-8.69,6.7-9.45
		C151.62,438.73,155.85,441.73,156.61,446.19z"/>
	<path class="st10" d="M760.66,424.68c0.76,4.46-2.24,8.69-6.7,9.45c-4.46,0.76-8.69-2.24-9.45-6.7c-0.76-4.46,2.24-8.69,6.7-9.45
		C755.66,417.22,759.9,420.22,760.66,424.68z"/>
</g>
<g>
	<polygon class="st10" points="434.41,64.21 428.29,49.25 487.38,26.81 	"/>
	<polygon class="st3" points="437.39,54.99 487.38,26.81 452.58,62.15 	"/>
	<polygon class="st3" points="414.76,43.16 487.38,26.81 428.29,49.25 	"/>
	<polygon class="st11" points="437.39,54.99 434.41,64.21 443.43,57.84 	"/>
</g>
<path class="st12" d="M427.47,62.21c-15.43-2.61-36.37,12.99-27.36,29.24c3.07,5.53,18.88,3.13,17.71-2.98
	c-0.56-2.93-4.15-4.17-7.11-3.83c-17.24,1.98-16.2,16.48-17.16,20.11c-16.12,60.71,24.09,127.45,93.83,169.49"/>
<g>
	<path class="st13" d="M263.38,600.51c0,1.63-17.4,2.96-38.88,2.96s-38.88-1.32-38.88-2.96c0-1.63,17.4-2.96,38.88-2.96
		S263.38,598.88,263.38,600.51z"/>
	
		<linearGradient id="SVGID_1_" gradientUnits="userSpaceOnUse" x1="914.3936" y1="558.2245" x2="948.6027" y2="521.5657" gradientTransform="matrix(-1 -8.000000e-03 -8.000000e-03 1 1131.1691 -4.4969)">
		<stop  offset="0" style="stop-color:#008161"/>
		<stop  offset="1" style="stop-color:#9FFF31"/>
	</linearGradient>
	<path class="st14" d="M215.01,545.53c9.63-6.13-2.7-24.88-25.1-26.7c0,0-2.39,9.87-0.2,18.64
		C191.59,544.96,201.53,554.11,215.01,545.53z"/>
	
		<linearGradient id="SVGID_2_" gradientUnits="userSpaceOnUse" x1="824.5487" y1="681.986" x2="858.7572" y2="645.3277" gradientTransform="matrix(-0.9276 -0.3736 -0.3736 0.9276 1244.7258 222.3046)">
		<stop  offset="0" style="stop-color:#008161"/>
		<stop  offset="1" style="stop-color:#9FFF31"/>
	</linearGradient>
	<path class="st15" d="M227.92,547.03c11.2-2.18,6.6-24.14-13.58-34.03c0,0-5.84,8.3-7,17.27
		C206.34,537.92,212.24,550.08,227.92,547.03z"/>
	
		<linearGradient id="SVGID_3_" gradientUnits="userSpaceOnUse" x1="669.0943" y1="778.8904" x2="700.0594" y2="745.7079" gradientTransform="matrix(-0.6616 -0.7498 -0.7498 0.6616 1260.2032 533.6154)">
		<stop  offset="0" style="stop-color:#008161"/>
		<stop  offset="1" style="stop-color:#9FFF31"/>
	</linearGradient>
	<path class="st16" d="M235.75,548.53c9.95,2.78,15.13-16.85,2.82-33.05c0,0-8.09,4.35-12.68,11.13
		C221.98,532.4,221.82,544.63,235.75,548.53z"/>
	
		<linearGradient id="SVGID_4_" gradientUnits="userSpaceOnUse" x1="496.5259" y1="795.6787" x2="524.3445" y2="765.868" gradientTransform="matrix(-0.2661 -0.964 -0.964 0.2661 1137.9414 811.0251)">
		<stop  offset="0" style="stop-color:#008161"/>
		<stop  offset="1" style="stop-color:#9FFF31"/>
	</linearGradient>
	<path class="st17" d="M240.08,546.02c6.94,6.16,18.86-7.65,15.29-25.58c0,0-8.25,0.33-14.62,4
		C235.31,527.57,230.36,537.39,240.08,546.02z"/>
	<linearGradient id="SVGID_5_" gradientUnits="userSpaceOnUse" x1="292.6956" y1="563.916" x2="209.6965" y2="436.8465">
		<stop  offset="0" style="stop-color:#008161"/>
		<stop  offset="1" style="stop-color:#9FFF31"/>
	</linearGradient>
	<path class="st18" d="M260.13,499.8c38.11-14.95,7.63-89.44-70-111.26c0,0-15.21,33.09-13.52,65.49
		C178.07,481.67,206.77,520.73,260.13,499.8z"/>
	
		<linearGradient id="SVGID_6_" gradientUnits="userSpaceOnUse" x1="770.7752" y1="574.0933" x2="872.721" y2="412.8515" gradientTransform="matrix(-1 0 0 1 1043.3616 0)">
		<stop  offset="0" style="stop-color:#008161"/>
		<stop  offset="1" style="stop-color:#9FFF31"/>
	</linearGradient>
	<path class="st19" d="M197.88,397.95c7.1,5.13,13.12,11.48,17.75,18.72c1.32,1.66,2.34,3.57,3.46,5.39
		c1.05,1.86,2.3,3.58,3.17,5.54c0.89,1.94,1.85,3.84,2.79,5.75l1.4,2.85l1.12,3c3.15,7.9,5.64,16.07,7.52,24.38
		c0.79,4.21,1.71,8.38,2.57,12.56l1.51,12.79c0.25,2.13,0.67,4.24,0.78,6.39l0.33,6.47c0.23,4.31,0.4,8.62,0.7,12.94
		c-0.12,8.67-0.01,17.35-0.26,26.07c-0.23,4.36-0.56,8.71-0.72,13.09l-0.26,6.57l-0.13,3.29l-0.32,3.28l-1.05,13.17l-0.52,6.61
		l-0.33,6.67l0.62,0.13l4.59-26.09l0.57-3.26l0.36-3.29l0.73-6.59l1.45-13.17l0.35-3.3l0.13-3.31l0.26-6.62l0.52-13.25l-0.5-13.26
		l-0.25-6.63c-0.09-2.21-0.49-4.39-0.72-6.59l-1.72-13.16l-2.87-12.96c-2.27-8.54-5-17.01-8.78-25.02l-1.33-3.04l-1.62-2.9
		l-3.25-5.79c-1.04-1.95-2.48-3.67-3.7-5.51c-1.29-1.8-2.47-3.69-3.99-5.31c-5.54-6.9-12.18-13.03-20.11-17.18L197.88,397.95z"/>
	
		<linearGradient id="SVGID_7_" gradientUnits="userSpaceOnUse" x1="160.8273" y1="395.7736" x2="254.2523" y2="295.6584" gradientTransform="matrix(0.9798 -0.1997 0.1997 0.9798 7.1492 108.5523)">
		<stop  offset="0" style="stop-color:#008161"/>
		<stop  offset="1" style="stop-color:#9FFF31"/>
	</linearGradient>
	<path class="st20" d="M236.07,463.25c-29.01-11.38-5.81-68.08,53.29-84.69c0,0,11.58,25.19,10.29,49.85
		C298.54,449.45,276.69,479.19,236.07,463.25z"/>
	
		<linearGradient id="SVGID_8_" gradientUnits="userSpaceOnUse" x1="842.5957" y1="576.6844" x2="732.5538" y2="402.6374" gradientTransform="matrix(-1 0 0 1 1043.3616 0)">
		<stop  offset="0" style="stop-color:#008161"/>
		<stop  offset="1" style="stop-color:#9FFF31"/>
	</linearGradient>
	<path class="st21" d="M283.16,385.35c-6.01,6.94-10.84,14.74-15.67,22.54c-2.26,3.99-4.49,7.99-6.5,12.11l-3.1,6.14l-2.87,6.26
		c-7.6,16.72-13.29,34.26-17.79,52.06c-1.02,4.48-1.89,8.98-2.85,13.47l-1.38,6.74l-1.04,6.8l-1.91,13.62
		c-0.46,4.56-0.79,9.14-1.1,13.7l-0.49,6.85c-0.1,2.28-0.11,4.58-0.17,6.86l-0.25,13.71c-0.05,4.57,0.45,9.14,0.65,13.69
		c0.23,4.56,0.57,9.11,0.98,13.64l0.48-0.01c0.17-9.07,0.03-18.15,0.44-27.21l0.86-13.58c0.16-2.26,0.26-4.53,0.46-6.79l0.78-6.76
		l1.56-13.52l2.21-13.42l1.12-6.71l1.42-6.65c0.98-4.43,1.88-8.87,2.94-13.28c4.31-17.62,9.78-34.95,16.57-51.77
		c6.86-16.76,14.79-33.22,25.03-48.18L283.16,385.35z"/>
	
		<linearGradient id="SVGID_9_" gradientUnits="userSpaceOnUse" x1="807.419" y1="528.9033" x2="979.2094" y2="344.8109" gradientTransform="matrix(-0.9617 -0.2739 -0.2739 0.9617 1127.2305 143.3348)">
		<stop  offset="0" style="stop-color:#008161"/>
		<stop  offset="1" style="stop-color:#9FFF31"/>
	</linearGradient>
	<path class="st22" d="M220.12,430.15c54.78-16.79,20.2-124.02-85.81-162.76c0,0-24.77,44.56-25.86,89.95
		C107.52,396.08,143.41,453.66,220.12,430.15z"/>
	
		<linearGradient id="SVGID_10_" gradientUnits="userSpaceOnUse" x1="779.7221" y1="575.1344" x2="931.7964" y2="297.8705" gradientTransform="matrix(-1 0 0 1 1043.3616 0)">
		<stop  offset="0" style="stop-color:#008161"/>
		<stop  offset="1" style="stop-color:#9FFF31"/>
	</linearGradient>
	<path class="st23" d="M144.04,281.2c2.02,2.79,3.93,5.65,5.74,8.59c1.92,2.84,3.7,5.78,5.47,8.72c1.82,2.9,3.49,5.89,5.13,8.91
		c1.62,3.02,3.39,5.93,4.84,9.04c3.11,6.09,6.37,12.07,9.09,18.33c1.4,3.11,2.89,6.17,4.35,9.24l3.94,9.42l3.92,9.41l3.54,9.56
		l3.55,9.55c1.2,3.18,2.06,6.47,3.11,9.7c0.98,3.25,2.08,6.47,3.12,9.69l1.58,4.84c0.49,1.63,0.88,3.28,1.32,4.92l5.18,19.7
		c1.57,6.6,2.87,13.27,4.33,19.91c0.68,3.33,1.49,6.63,2.06,9.98c0.5,3.36,0.98,6.72,1.55,10.08c1.05,6.72,2.3,13.42,3.21,20.16
		c0.62,6.78,1.38,13.55,2.16,20.33l1.15,10.18l0.54,10.23l1.27,20.51c0.83,13.71,0.3,27.44,1.1,41.32l0.76,0.07l1.21-20.66
		l0.6-10.33c0.21-3.44,0.45-6.89,0.33-10.34l-0.16-20.7l-0.09-10.35l-0.76-10.32l-1.52-20.65c-0.75-6.86-1.85-13.68-2.75-20.52
		l-1.42-10.26c-0.54-3.41-1.34-6.77-2-10.16c-1.41-6.76-2.68-13.55-4.21-20.28c-6.69-26.8-15.69-53.01-27.27-78.08
		c-11.68-24.97-25.52-49.14-43.44-70.25L144.04,281.2z"/>
	
		<linearGradient id="SVGID_11_" gradientUnits="userSpaceOnUse" x1="868.6893" y1="460.1573" x2="992.6356" y2="327.335" gradientTransform="matrix(-0.9987 0.0516 0.0516 0.9987 1023.2239 -20.5822)">
		<stop  offset="0" style="stop-color:#008161"/>
		<stop  offset="1" style="stop-color:#9FFF31"/>
	</linearGradient>
	<path class="st24" d="M188.98,480.02c33.49-24.24-15.12-89.39-96.55-91.13c0,0-6.52,36.21,3.32,67.45
		C104.14,483,142.08,513.96,188.98,480.02z"/>
	
		<linearGradient id="SVGID_12_" gradientUnits="userSpaceOnUse" x1="795.3648" y1="569.2499" x2="961.6882" y2="417.3651" gradientTransform="matrix(-1 0 0 1 1043.3616 0)">
		<stop  offset="0" style="stop-color:#008161"/>
		<stop  offset="1" style="stop-color:#9FFF31"/>
	</linearGradient>
	<path class="st25" d="M102.31,396.06c8.24,5.56,15.93,11.8,23.02,18.63l5.39,5.02l5.13,5.29c3.49,3.44,6.62,7.24,9.81,10.96
		c12.61,15,23.77,31.12,33.53,48.09l7.05,12.89c1.23,2.12,2.28,4.33,3.28,6.57l3.12,6.66l3.19,6.64c0.52,1.11,1.09,2.21,1.57,3.33
		l1.36,3.42c1.78,4.58,3.7,9.11,5.63,13.65c2.06,4.49,3.53,9.2,5.16,13.86l4.87,14.02c3.13,9.4,5.62,19,8.9,28.49l0.54-0.1
		c-2.23-9.7-4.26-19.46-6.65-29.13l-4.24-14.33c-1.43-4.77-2.7-9.6-4.57-14.22l-5.2-14.02l-1.3-3.5c-0.47-1.16-1.01-2.28-1.51-3.42
		l-3.07-6.82l-3.07-6.82c-0.99-2.29-2.04-4.55-3.27-6.72l-7.05-13.19c-10.06-17.2-21.62-33.58-35.13-48.26
		c-3.41-3.63-6.76-7.33-10.47-10.67l-5.44-5.13l-5.71-4.83c-7.71-6.31-15.78-12.24-24.64-16.9L102.31,396.06z"/>
	
		<linearGradient id="SVGID_13_" gradientUnits="userSpaceOnUse" x1="882.7806" y1="391.761" x2="901.3744" y2="357.8606" gradientTransform="matrix(-1 0 0 1 1043.3616 0)">
		<stop  offset="0" style="stop-color:#008161"/>
		<stop  offset="1" style="stop-color:#9FFF31"/>
	</linearGradient>
	<path class="st26" d="M179.11,379.38c-4-3.06-8.37-5.16-12.84-6.88c-2.22-0.94-4.52-1.54-6.81-2.26c-2.3-0.62-4.65-1.09-6.98-1.61
		c-4.72-0.75-9.51-1.29-14.36-1.11c-4.84,0.16-9.75,0.81-14.42,2.68l0.01,0.51c9.36-0.09,18.68,1.18,27.87,2.9
		c9.22,1.62,18.37,3.69,27.38,6.26L179.11,379.38z"/>
	
		<linearGradient id="SVGID_14_" gradientUnits="userSpaceOnUse" x1="889.6146" y1="357.0857" x2="901.3591" y2="326.3674" gradientTransform="matrix(-1 0 0 1 1043.3616 0)">
		<stop  offset="0" style="stop-color:#008161"/>
		<stop  offset="1" style="stop-color:#9FFF31"/>
	</linearGradient>
	<path class="st27" d="M170.36,348.66c-2.84-3.25-6.15-5.63-9.62-7.66c-1.71-1.09-3.54-1.86-5.34-2.76
		c-1.83-0.8-3.72-1.46-5.59-2.16c-3.84-1.15-7.76-2.11-11.82-2.41c-4.05-0.32-8.24-0.19-12.35,1.12l-0.05,0.5
		c7.73,1,15.27,3.12,22.66,5.59c7.43,2.37,14.75,5.1,21.9,8.23L170.36,348.66z"/>
	
		<linearGradient id="SVGID_15_" gradientUnits="userSpaceOnUse" x1="828.818" y1="372.7451" x2="828.9052" y2="343.6568" gradientTransform="matrix(-1 0 0 1 1043.3616 0)">
		<stop  offset="0" style="stop-color:#008161"/>
		<stop  offset="1" style="stop-color:#9FFF31"/>
	</linearGradient>
	<path class="st28" d="M208.79,372.76c1.67-2.53,2.78-4.89,3.73-7.21c0.94-2.31,1.79-4.53,2.52-6.68c0.27-1.13,0.74-2.13,1.08-3.19
		l0.54-1.57c0.22-0.49,0.42-0.98,0.59-1.53c0.85-2.03,1.72-4.04,3.42-6.57l-0.17-0.43c-2.48,0.96-4.6,2.69-6.2,4.79
		c-1.65,2.08-2.74,4.52-3.64,6.97c-1.64,4.98-2.4,10.21-2.34,15.42L208.79,372.76z"/>
	
		<linearGradient id="SVGID_16_" gradientUnits="userSpaceOnUse" x1="848.538" y1="338.3697" x2="853.4769" y2="316.2357" gradientTransform="matrix(-1 0 0 1 1043.3616 0)">
		<stop  offset="0" style="stop-color:#008161"/>
		<stop  offset="1" style="stop-color:#9FFF31"/>
	</linearGradient>
	<path class="st29" d="M190.77,339.27c0.81-2.18,1.22-4.15,1.51-6.07c0.32-1.91,0.45-3.75,0.66-5.52c0.09-1.79,0.27-3.49,0.45-5.17
		c0.24-1.69,0.44-3.35,1.29-5.52l-0.2-0.29c-1.68,1.18-2.87,2.92-3.65,4.79c-0.8,1.87-1.18,3.88-1.38,5.89
		c-0.28,4.03,0.15,8.05,0.98,11.97L190.77,339.27z"/>
	<g>
		
			<linearGradient id="SVGID_17_" gradientUnits="userSpaceOnUse" x1="822.0027" y1="541.907" x2="822.0027" y2="594.15" gradientTransform="matrix(-1 0 0 1 1043.3616 0)">
			<stop  offset="0" style="stop-color:#F70F47"/>
			<stop  offset="1" style="stop-color:#9E005D"/>
		</linearGradient>
		<path class="st30" d="M197.81,600.51h47.09c2.34,0,4.31-1.75,4.59-4.08l6.49-54.59c0.33-2.75-1.82-5.16-4.58-5.16h-60.07
			c-2.77,0-4.92,2.42-4.59,5.16l6.49,54.59C193.5,598.76,195.47,600.51,197.81,600.51z"/>
		
			<linearGradient id="SVGID_18_" gradientUnits="userSpaceOnUse" x1="822.002" y1="555.239" x2="822.002" y2="532.4819" gradientTransform="matrix(-1 0 0 1 1043.3616 0)">
			<stop  offset="0" style="stop-color:#F70F47"/>
			<stop  offset="1" style="stop-color:#9E005D"/>
		</linearGradient>
		<path class="st31" d="M185.23,547.51h72.25c1.51,0,2.78-1.1,3.01-2.59l1.42-9.28c0.28-1.84-1.15-3.51-3.01-3.51h-75.09
			c-1.87,0-3.29,1.66-3.01,3.51l1.42,9.28C182.45,546.41,183.73,547.51,185.23,547.51z"/>
	</g>
</g>
<g>
	<path class="st6" d="M792.98,565.85l-537.15,1.11c-7.17,0.01-12.99-5.78-13-12.95l-0.73-355.85c-0.01-7.17,5.78-12.99,12.95-13
		l537.15-1.11c7.17-0.01,12.99,5.78,13,12.95l0.73,355.85C805.95,560.02,800.15,565.84,792.98,565.85z"/>
	<g>
		<path class="st32" d="M782.47,559.05l-537.15,1.11c-7.17,0.01-12.99-5.78-13-12.95l-0.73-355.85c-0.01-7.17,5.78-12.99,12.95-13
			l537.15-1.11c7.17-0.01,12.99,5.78,13,12.95l0.73,355.85C795.43,553.22,789.63,559.04,782.47,559.05z"/>
		<path class="st11" d="M780.8,177.25l-534.85,1.1c-7.8,0.02-14.11,6.35-14.1,14.15l0.03,12.28l563.1-1.16l-0.03-12.28
			C794.94,183.55,788.61,177.24,780.8,177.25z"/>
		<path class="st7" d="M246.6,560.16l80.81-0.17l-0.73-355.39l-94.94,0.2l0.7,341.29C232.46,553.87,238.8,560.18,246.6,560.16z"/>
		<g>
			<path class="st33" d="M781.84,179.25c6.04,0,10.96,4.91,10.97,10.95l0.73,355.85c0.01,6.05-4.9,10.99-10.95,11l-537.17,1.11
				c-6.04,0-10.96-4.91-10.98-10.95l-0.73-355.85c-0.01-6.05,4.9-10.99,10.95-11l537.14-1.11H781.84L781.84,179.25 M781.84,177.25
				c-0.01,0-0.02,0-0.03,0l-537.15,1.11c-7.17,0.01-12.96,5.84-12.95,13l0.73,355.85c0.01,7.16,5.82,12.95,12.98,12.95
				c0.01,0,0.02,0,0.03,0l537.15-1.11c7.17-0.01,12.96-5.84,12.95-13l-0.73-355.85C794.8,183.04,788.99,177.25,781.84,177.25
				L781.84,177.25z"/>
		</g>
		<path class="st32" d="M315.97,532.99l-66.66,0.14c-1.54,0-2.79-1.24-2.79-2.78l-0.01-4.99c0-1.54,1.24-2.79,2.78-2.79l66.65-0.14
			c1.54,0,2.79,1.24,2.79,2.78l0.01,4.99C318.75,531.74,317.51,532.99,315.97,532.99z"/>
		<path class="st32" d="M310.3,291.88l-61.04,0.13c-2.82,0.01-5.11-2.28-5.12-5.1l-0.13-61.04c-0.01-2.82,2.28-5.11,5.1-5.12
			l61.04-0.13c2.82-0.01,5.11,2.28,5.12,5.1l0.13,61.04C315.4,289.58,313.12,291.87,310.3,291.88z"/>
		<path class="st7" d="M536.14,450.71l-190.45,0.39c-2.01,0-3.64-1.62-3.65-3.63l-0.01-6.52c0-2.01,1.62-3.64,3.63-3.65l190.45-0.39
			c2.01,0,3.64,1.62,3.65,3.63l0.01,6.52C539.78,449.08,538.15,450.71,536.14,450.71z"/>
		<path class="st7" d="M525.46,240.24l-151.7,0.31c-2.01,0-3.64-1.62-3.65-3.63l-0.01-6.52c0-2.01,1.62-3.64,3.63-3.65l151.7-0.31
			c2.01,0,3.64,1.62,3.65,3.63l0.01,6.52C529.1,238.6,527.47,240.24,525.46,240.24z"/>
		<path class="st7" d="M756.23,387.88l-200.36,0.41c-2.01,0-3.64-1.62-3.65-3.63l-0.01-6.52c0-2.01,1.62-3.64,3.63-3.65l200.35-0.41
			c2.01,0,3.64,1.62,3.65,3.63l0.01,6.52C759.87,386.24,758.24,387.87,756.23,387.88z"/>
		<path class="st7" d="M536.2,479.25l-190.45,0.39c-2.01,0-3.64-1.62-3.65-3.63l-0.01-6.52c0-2.01,1.62-3.64,3.63-3.65l190.45-0.39
			c2.01,0,3.64,1.62,3.65,3.63l0.01,6.52C539.83,477.61,538.21,479.24,536.2,479.25z"/>
		<path class="st7" d="M536.26,507.78l-190.45,0.39c-2.01,0-3.64-1.62-3.65-3.63l-0.01-6.52c0-2.01,1.62-3.64,3.63-3.65l190.45-0.39
			c2.01,0,3.64,1.62,3.65,3.63l0.01,6.52C539.89,506.14,538.27,507.78,536.26,507.78z"/>
		<path class="st7" d="M754.15,526.39l-195.61,0.4c-3.32,0.01-6.02-2.68-6.02-6l-0.18-89.4c-0.01-3.32,2.68-6.02,6-6.02l195.61-0.4
			c3.32-0.01,6.02,2.68,6.02,6l0.18,89.4C760.15,523.68,757.47,526.38,754.15,526.39z"/>
		<path class="st7" d="M262.74,191.3c0.01,2.51-2.03,4.55-4.54,4.56c-2.51,0.01-4.55-2.03-4.56-4.54c-0.01-2.51,2.03-4.55,4.54-4.56
			C260.7,186.75,262.74,188.78,262.74,191.3z"/>
		<circle class="st7" cx="277.46" cy="191.26" r="4.55"/>
		<path class="st7" d="M301.27,191.22c0.01,2.51-2.03,4.55-4.54,4.56c-2.51,0.01-4.55-2.03-4.56-4.54
			c-0.01-2.51,2.03-4.55,4.54-4.56C299.23,186.67,301.27,188.7,301.27,191.22z"/>
		
			<ellipse transform="matrix(0.0997 -0.995 0.995 0.0997 82.4685 558.5464)" class="st7" cx="349.88" cy="233.7" rx="13.16" ry="13.16"/>
		<path class="st32" d="M311.07,303.01l-60.44,0.12c-0.76,0-1.37-0.61-1.38-1.37l0-2.46c0-0.76,0.61-1.37,1.37-1.38l60.44-0.12
			c0.76,0,1.37,0.61,1.38,1.37l0.01,2.46C312.44,302.39,311.83,303.01,311.07,303.01z"/>
		<path class="st32" d="M311.09,314.14l-60.44,0.12c-0.76,0-1.37-0.61-1.38-1.37l-0.01-2.46c0-0.76,0.61-1.37,1.37-1.38l60.44-0.12
			c0.76,0,1.37,0.61,1.38,1.37l0,2.46C312.46,313.52,311.85,314.13,311.09,314.14z"/>
		<path class="st7" d="M376.75,337.67l-16.48,0.17l0.12,69.05l-14.22,0.03c-5.02,0.01-9.1-4.05-9.11-9.07l-0.26-127.69
			c-0.01-5.07,4.09-9.19,9.16-9.2l30.61-0.08L376.75,337.67z"/>
		<g>
			<path class="st7" d="M488.37,260.66v1c2.76,0,5.01,2.24,5.01,5l0.28,133.94c0.01,2.76-2.24,5.02-5,5.02l-145.58,0.3
				c-2.76,0-5.01-2.24-5.01-5l-0.28-133.94c0-1.34,0.52-2.6,1.46-3.55c0.94-0.95,2.2-1.47,3.54-1.48l145.58-0.3L488.37,260.66
				 M488.37,260.66c0,0-0.01,0-0.01,0l-145.57,0.3c-3.32,0.01-6.01,2.7-6,6.02l0.28,133.94c0.01,3.32,2.7,6,6.01,6
				c0,0,0.01,0,0.01,0l145.57-0.3c3.32-0.01,6.01-2.7,6-6.02l-0.28-133.94C494.38,263.34,491.69,260.66,488.37,260.66L488.37,260.66
				z"/>
		</g>
	</g>
	<path class="st7" d="M715.59,364.18l-190.8-43.12c-3.24-0.73-5.27-3.95-4.54-7.19l22.51-99.59c0.73-3.24,3.95-5.27,7.19-4.54
		l190.8,43.12c3.24,0.73,5.27,3.95,4.54,7.19l-22.51,99.59C722.05,362.88,718.83,364.91,715.59,364.18z"/>
	<g>
		<polygon class="st11" points="359.55,608.96 334.14,609.01 327.92,576.64 365.63,576.56 		"/>
		<path class="st7" d="M334.96,576.63c0.01,2.64-0.5,7.08,1.26,7.14c1.76,0.07,1.03-4.21,3.04-4.09c1.28,0.07-0.6,14.06,4.24,14.4
			c3.33,0.23,2.72-6.86,3.06-11.3c0.23-3,4.08-2.42,4.11-0.43c0.04,2.22-0.11,3.71,0,6.24c0.18,4.22,6.68,3.1,6.44-2.54
			c-0.23-5.65-0.01-9.46-0.01-9.46L334.96,576.63z"/>
		<g>
			<path class="st34" d="M328.87,596.18c-0.52,0-1.02-0.05-1.5-0.16c-1.87-0.41-3.18-1.4-3.91-2.93c-2.59-5.49,4.23-15.78,4.5-16.24
				l0.36,1.85c-0.06,0.11-5.99,8.95-3.66,13.89c0.55,1.17,1.54,1.9,3.01,2.23c0.41,0.09,0.83,0.13,1.28,0.13
				c9.15-0.02,24.8-17.07,24.97-17.27c0.64-0.77,1.84-0.04,1.41,0.6C354.6,579.11,338.71,596.16,328.87,596.18z"/>
		</g>
	</g>
	<g>
		<path class="st6" d="M595.88,153.49c-36.11-1.38-85.83,25.33-68.19,90.63c-0.38,5.52,2.92,9.46,6.44,8.38
			c3.52-1.08,0.42-11.54,0.42-11.54c6.01-48.55,17.26-56.95,36.35-56.77l44.79-0.09c11.07,1.63,31.19,9.37,34.21,48.24l11.15,2.06
			C661.92,206.31,655.12,155.76,595.88,153.49z"/>
		<path class="st35" d="M595.88,147.8c-36.11-1.38-85.83,25.33-68.19,90.63l6.86-3.16c6.01-48.55,17.26-56.95,36.35-56.77
			l44.79-0.09c11.07,1.63,31.73,11.45,34.75,50.32l10.61-0.02C661.92,200.63,655.12,150.07,595.88,147.8z"/>
		<path class="st36" d="M588.49,148.87l-5.36,11.79c0,0,0.64,6.64,7.16,6.5c6.52-0.14,7.39-3.15,7.39-3.15l0.85-13.53L588.49,148.87
			z"/>
		<path class="st36" d="M616.06,139.03c-6.11,10.81-8.82,14.17-16.82,15.8c-10.35,2.1-21.96-4.88-16.57-22.09
			c4.4-14.03,11.06-11.87,17.59-11.34C606.79,121.93,622.67,127.36,616.06,139.03z"/>
		<path class="st34" d="M591.76,130.5c-1.62-0.85-3.72-0.13-4.98,1.2c-1.3,1.37-1.92,3.41-1.37,5.21c-2.5,0.04-4.7,2.49-4.46,4.98
			c-1.71-3.99-0.79-8.14-1.12-12.22c-0.34-4.08,0.11-8.52,2.76-11.65c1.08-1.28,2.48-2.27,3.97-3.06
			c5.63-2.99,12.71-3.09,18.42-0.26c1.18,0.59,4.15,2.45,8.29,1.45c7.89-1.91,12.5,3.43,7.76,8.42c1.52,0.55,3.19,1.23,3.88,2.69
			c0.18,0.37,0.27,0.84,0.03,1.18c-0.16,0.24-0.45,0.36-0.72,0.45c-1.33,0.45-2.77,0.56-4.15,0.33c0.53,0.45,3.46,0.63,4.34,2.33
			c2.35,4.53-6.97,2.24-8.39,1.79c1.62,0.3,5.88,3.7,4.51,6.03c-0.27,0.46-6.01,3.81-12.05-3.21c-1.4-1.63-3.16-3.14-5.24-3.69
			c-1.63-0.44-3.34,0.17-4.92,0.76c-1.15,0.43-4.1,2.23-4.94,1.16C592.45,133.25,593.64,131.44,591.76,130.5z"/>
		<path class="st36" d="M651.58,228.73c-1.6,5.51-3.22,6.06-1.28,6.93c1.94,0.88,3.51-2.21,3.51-2.21l8.96,1.78
			c0,0-2.02-5.82-3.43-6.52C657.92,228.01,651.58,228.73,651.58,228.73z"/>
		<path class="st36" d="M534.54,235.27c1.17,2.91,1.49,2.93,3.12,6.42c3.12,6.68-4.18,17.24-8.71,5.71
			c-1.24-3.16-1.26-8.97-1.26-8.97L534.54,235.27z"/>
	</g>
	<g>
		<g>
			<path class="st34" d="M604.52,115.43c3.54,0.34,6.89-0.97,10.38-1.32c2.95-0.3,6.4,0.23,8.21,2.85c0.24,0.35,0.81,0.04,0.58-0.34
				c-1.64-2.68-4.88-3.52-7.84-3.32c-3.82,0.25-7.46,1.86-11.32,1.56C604.15,114.83,604.15,115.4,604.52,115.43L604.52,115.43z"/>
			<path class="st34" d="M607.05,112.56c-3.83,1.07-7.7-1-11.57-0.61c-3.62,0.36-6.96,2.18-9.7,4.5c-0.37,0.32,0.13,0.97,0.53,0.68
				c2.92-2.13,6.19-4.11,9.9-4.25c3.7-0.14,7.4,1.69,11.05,0.4C607.7,113.13,607.52,112.43,607.05,112.56L607.05,112.56z"/>
			<path class="st34" d="M583.25,118.15c-1.35,0.83-2.62,1.85-3.45,3.23c-0.84,1.4-1.25,3.04-1.37,4.66
				c-0.14,1.84,0.12,3.67,0.46,5.48c0.23,1.23,0.29,3.37,1.72,3.85c0.38,0.13,0.6-0.44,0.27-0.64c-0.54-0.32-0.7-0.96-0.83-1.54
				c-0.18-0.78-0.34-1.57-0.48-2.36c-0.29-1.61-0.49-3.26-0.38-4.9c0.1-1.47,0.47-2.93,1.2-4.21c0.75-1.32,1.85-2.32,3.09-3.17
				C583.74,118.38,583.51,117.99,583.25,118.15L583.25,118.15z"/>
			<path class="st34" d="M628.28,128.15c-0.78-1.37-2.02-2.43-3.47-3.03c-1.43-0.59-3.16-0.79-4.6-0.16
				c-0.26,0.12-0.14,0.59,0.15,0.55c1.42-0.18,2.79-0.2,4.15,0.29c1.36,0.49,2.54,1.38,3.32,2.6
				C628,128.69,628.44,128.44,628.28,128.15L628.28,128.15z"/>
		</g>
	</g>
	<g>
		<path class="st10" d="M429.8,400.37c18.93,6.95,35.38,28.68,31.6,44.47c-4.26,17.83-16.56,25.52-16.56,25.52l-3.88-7.16
			c0,0,9.84-15.38,8.98-22.64c-1.37-11.63-16.05-19.4-16.05-19.4L429.8,400.37z"/>
		<path class="st34" d="M383.19,601.6c0,0-11.63,4.7-14.53,7.35l23.03-0.05l-0.02-7.32L383.19,601.6z"/>
		<path class="st34" d="M434.08,601.16c0,0,3.3,3.83,3.91,7.66l-15.72,0.03c0.27-2.65,1.4-5.19,2.93-7.67L434.08,601.16z"/>
		<path class="st37" d="M435.04,601.5l-10.73,0.02c0.21-12.64-2.39-55.72-4.91-87.92c-1.48-18.89-2.95-34.06-3.8-37.13l5.75-1.27
			l21.69-4.82C446.75,487.33,438.18,565.21,435.04,601.5z"/>
		<path class="st38" d="M395.6,475.78c-8.37,13.18-10.53,108.44-14.04,126.09l10.17,0.58c0,0,11.69-60.06,36.58-127.57L395.6,475.78
			z"/>
		<path class="st6" d="M432.61,474.87c-4.91,13.34-9.32,26.39-13.21,38.72c-1.48-18.89-2.95-34.06-3.8-37.13l5.75-1.27
			L432.61,474.87z"/>
		<path class="st38" d="M395.6,475.78c-8.37,13.18-10.53,108.44-14.04,126.09l10.17,0.58c0,0,11.69-60.06,36.58-127.57L395.6,475.78
			z"/>
		<path class="st36" d="M402,369.44c0,0-6.51,24.82,9.76,24.79l-0.97,6.34l12.36,1.35l-2.67-8.84c0,0,2.44-15.61,2.61-18.42
			C423.39,369.4,408.65,360.12,402,369.44z"/>
		<g>
			
				<rect x="356.98" y="341.62" transform="matrix(1 -1.973264e-03 1.973264e-03 1 -0.6934 0.7098)" class="st34" width="4.79" height="20.26"/>
			<path class="st11" d="M374.66,341.59l-30.6,0.06c-1.08,0-1.96-0.87-1.96-1.95l-0.01-3.79c0-1.08,0.87-1.96,1.95-1.96l30.6-0.06
				c1.08,0,1.96,0.87,1.96,1.95l0.01,3.79C376.61,340.71,375.74,341.59,374.66,341.59z"/>
		</g>
		<path class="st36" d="M355.67,367.17c-0.13-4.6-3.92-3.39-1.83-10.89c1.29-4.64,10.86,0.74,9.67,3.96
			c-1.19,3.22-2.57,8.3-2.57,8.3L355.67,367.17z"/>
		<path class="st11" d="M411.87,399.11c-24.33,1.61-25.93,9.81-36.82,8.53c-16.12-1.9-13.3-31.83-11.3-42.56l-9.63,0.02
			c0,0-17.35,68.18,37.45,55.58c-2.1,11.94,11.52,31.45-1.69,55.12c20.81,5.65,40.22,7.04,56.84-0.11
			c-2.91-3.92,5.97-43.54-11.41-72.05C431.92,398.06,413.66,399,411.87,399.11z"/>
		<path class="st11" d="M411.87,399.11c-24.33,1.61-25.93,9.81-36.82,8.53c-16.12-1.9-13.3-31.83-11.3-42.56l-9.63,0.02
			c0,0-17.35,68.18,37.45,55.58c-2.1,11.94,11.52,31.45-1.69,55.12c20.81,5.65,40.22,7.04,56.84-0.11
			c-2.91-3.92,5.97-43.54-11.41-72.05C431.92,398.06,413.66,399,411.87,399.11z"/>
		<path class="st35" d="M408.52,374.2c1.59,0.4,3.43,0.71,4.28,2.06c0.55,0.87,0.51,1.96,0.46,2.98c0.29-1.07,1.47-1.84,2.61-1.7
			c1.14,0.13,2.1,1.15,2.12,2.25c0.01,0.52-0.16,1.02-0.35,1.51c-0.47,1.21-1.08,2.36-1.81,3.45c1.99,0.73,3.65,6.55,4.65,8.35
			c3.34-0.84,10.78-3.71,11.43-15.55c0.3-5.51-1.38-12.12-7.36-15.79c-4.22-2.59-11.24-2.63-16.07-1.39c-3.92,1-10.18,4.92-7.26,9.5
			C402.68,372.17,405.9,373.53,408.52,374.2z"/>
		<path class="st35" d="M429.36,366.66c2.27-0.75,5.14-0.35,6.5,1.54c1.06,1.48,0.97,3.41,1.31,5.18c0.17,0.85,0.47,1.72,1.13,2.3
			c0.79,0.7,1.93,0.87,3,0.93c2.62,0.14,5.27-0.19,7.85,0.25c2.58,0.44,5.22,1.9,5.96,4.31c0.41,1.33,0.18,2.8,0.67,4.11
			c0.73,1.97,2.82,3.08,4.65,4.22c3.88,2.43,7.17,5.71,9.56,9.51c1.51,2.41,2.67,5.08,2.86,7.89c0.18,2.81,2.21,6.51,1.67,9.27
			c-0.58,2.98-3.51,7.01-9.3,8.87c-10,3.22-13.17,4.61-22.75-1.08c-1.16-0.69-3.41-3.02-4.46-3.86c-0.82-0.66-1.34-1.6-1.63-2.59
			c-0.8-2.75,0.12-5.71,1.56-8.22c1.44-2.5,3.37-4.71,4.83-7.2c0.88-1.5,1.6-3.16,1.51-4.87c-0.03-0.64-0.19-1.31-0.66-1.77
			c-0.4-0.4-0.98-0.59-1.55-0.7c-2.1-0.41-4.42,0.02-6.33-0.92c-1.85-0.92-2.87-3.16-2.31-5.09c0.38-1.29,1.35-2.37,1.63-3.68
			c0.4-1.88-0.78-3.82-2.42-4.93c-1.64-1.1-3.66-1.53-5.64-1.86c-0.97-0.16-1.99-0.32-2.79-0.89c-0.98-0.7-1.43-1.93-1.41-3.1
			C422.85,370.59,425.86,367.83,429.36,366.66z"/>
	</g>
	<g>
		<g>
			<path class="st35" d="M427.66,376.51c3.04,0.3,5.45,3.24,5.03,6.28c-0.43,3.17-2.96,5.61-3.31,8.83
				c-0.15,1.34,0.12,2.71,1.02,3.75c0.85,0.99,2.13,1.5,3.39,1.71c1.34,0.22,2.69,0.09,4.05,0.09c1.34,0,2.88,0.11,3.86,1.16
				c1.24,1.33,0.88,3.41,0.29,4.95c-0.67,1.74-1.63,3.31-1.74,5.22c-0.03,0.43,0.61,0.41,0.66,0c0.37-3.16,3.33-6.13,2.07-9.45
				c-1.08-2.85-4.44-2.6-6.94-2.54c-1.52,0.04-3.16-0.1-4.44-0.99c-1.43-1-1.76-2.75-1.46-4.38c0.59-3.19,3.27-5.75,3.19-9.1
				c-0.07-3.03-2.65-5.67-5.66-5.88C427.42,376.13,427.43,376.49,427.66,376.51L427.66,376.51z"/>
		</g>
	</g>
	<g>
		<g>
			<path class="st35" d="M402.71,361.81c3.37-1.97,7.06-3.24,10.98-3.35c3.71-0.1,7.41,0.84,10.64,2.66
				c1.82,1.02,3.49,2.29,4.98,3.75c0.29,0.28,0.7-0.14,0.44-0.44c-5.18-5.84-13.67-8.06-21.11-5.87c-2.18,0.64-4.26,1.61-6.07,3
				C402.43,361.67,402.55,361.9,402.71,361.81L402.71,361.81z"/>
		</g>
	</g>
	<g>
		<polygon class="st36" points="714.57,391.02 710.55,399.11 720.38,403.13 721.43,393.82 		"/>
		<path class="st36" d="M720.51,364.69c-22.3,9.71-13.16,33.23,0.41,30.47c6.61-1.34,9.95-22.62,9.95-22.62L720.51,364.69z"/>
		<path class="st39" d="M727.92,361.34c-0.73-1.37-1.43-2.82-2.64-3.79c-1.21-0.97-3.12-1.28-4.26-0.22
			c-1.5,1.39-0.62,4.01,0.9,5.38c-1.31,0.16-2.86-0.74-3.82,0.15c-0.73,0.68-0.48,1.89-0.06,2.8c0.98,2.13,2.59,3.97,4.57,5.24
			c-1.13,0.64-2.44,1.88-1.76,2.99c0.19,0.31,0.5,0.52,0.69,0.83c0.43,0.72,0.01,1.64-0.42,2.36c-0.7,1.16-1.46,2.29-2.27,3.38
			c0.77-1.05,2.63-0.62,3.2,0.55c0.56,1.17,0.07,2.62-0.79,3.59c-0.48,0.54-1.1,0.99-1.8,1.15c-0.61,0.14-3.31,8.5-1.21,10.13
			c2.61,2.02,11.47,0.27,12.75-2.02c1.28,1.39,3.16,2.44,5.01,2.08c1.86-0.37,3.27-2.66,2.27-4.26c2.01,0.74,4.44,0.09,5.81-1.55
			c1.37-1.64,1.57-4.16,0.48-6c1.09-0.33,1.31-1.81,1.03-2.92c-0.56-2.24-2.39-4.12-4.61-4.74c1.13,0.02,2.03-1.12,2.08-2.25
			c0.05-1.13-0.53-2.19-1.24-3.07c-2.09-2.58-4.57-3.27-7.67-3.66C731.02,367.1,729.3,363.91,727.92,361.34z"/>
		<path class="st34" d="M707.02,600.06c0,0-13.05,6.26-14.8,8.22c0,0,25.67,1.15,27.68-0.06c2.01-1.21-4.11-8.18-4.11-8.18
			L707.02,600.06z"/>
		<path class="st34" d="M755.56,592.97c0,0-11.47,8.83-12.78,11.1c0,0,27.07-4.02,27.07-5.79c0-1.77-5.71-7.15-5.71-7.15
			L755.56,592.97z"/>
		<path class="st40" d="M719.63,479.09c-0.48,2.65-18.35,73.18,32.77,115.46l14.81-3.4c0,0-17.23-16.16-25.35-45.25
			c-7.68-27.5-1.58-30.2,3.03-45.35c5.1-16.77,1.3-28.94,1.3-28.94L719.63,479.09z"/>
		<path class="st35" d="M695.2,478.87c-8.1,19.36-22.01,85.36,8.31,122.52l15.14-0.03c0,0-11.93-13.07-13.26-43.4
			c-1.33-30.33,6.38-43.64,11.82-53.65c5.44-10.01,10.47-27.01,10.47-27.01L695.2,478.87z"/>
		<path class="st10" d="M684.52,358.82c-4.02,14.18-5.35,40.38,14.8,50.94l13.49-3.29c0,0-24.31-12.75-19.1-44.96L684.52,358.82z"/>
		<path class="st11" d="M647.37,351.56l10.47-1.29c0,0-1.26,43.96,49.51,47.66c38.75,2.83,41.8,75.55,41.8,75.55
			c-12.5,8.41-33.46,10.96-60.33,9.03c0,0,1.72-51.88-2.55-66.08C686.26,416.42,644.08,403.15,647.37,351.56z"/>
		<path class="st36" d="M634.57,343.58c-1.77,2.05,5.63,4.66,12.8,7.98l9.19-1.13c0,0,0.11-1.84-0.01-3.75s-1.07-3-2.16-1.36
			c-1.09,1.64-5.73,2.2-7.92,0.7C644.27,344.51,636.34,341.53,634.57,343.58z"/>
		<path class="st36" d="M684.52,358.82c-3.37-3.31-2.47-3.11-2.47-3.11l10.27,2.32c0,0,2.26-5.01,4.17-5.15
			c1.91-0.14-1.44,3.45-0.67,4.78c0.77,1.33-2.11,3.85-2.11,3.85L684.52,358.82z"/>
	</g>
	<g>
		<g>
			<path class="st39" d="M733.74,365.98c2.43,0.43,4.97,0.76,6.78,2.62c1.46,1.5,2.05,4.04,0.74,5.81c-0.31,0.42,0.4,0.98,0.73,0.56
				c1.63-2.03,1.09-4.92-0.53-6.79c-1.78-2.07-5.02-2.88-7.65-2.73C733.52,365.47,733.42,365.92,733.74,365.98L733.74,365.98z"/>
		</g>
	</g>
	<g>
		<g>
			<path class="st39" d="M743.09,385.02c1.44,0.78,2.66,2.21,2.19,3.95c-0.49,1.8-2.21,2.85-3.68,3.81
				c-0.36,0.24-0.04,0.79,0.34,0.58c1.78-1,3.72-2.29,4.1-4.46c0.34-1.96-0.98-3.57-2.63-4.42
				C743.05,384.29,742.73,384.83,743.09,385.02L743.09,385.02z"/>
		</g>
	</g>
	<g>
		<g>
			<path class="st39" d="M719.6,395.73c4.5,2.77,11.37,2.28,15.05-1.73c0.32-0.35-0.16-0.8-0.51-0.51
				c-2.01,1.62-4.26,2.78-6.85,3.11c-2.55,0.33-5.17-0.08-7.47-1.24C719.57,395.23,719.37,395.58,719.6,395.73L719.6,395.73z"/>
		</g>
	</g>
	<g>
		<g>
			<path class="st39" d="M743.67,369.24c1.25,0.94,1.51,2.68,1.13,4.11c-0.44,1.69-1.71,3.12-2.81,4.42
				c-0.23,0.27,0.14,0.65,0.39,0.39c1.41-1.4,2.87-2.93,3.18-4.98c0.23-1.57-0.32-3.35-1.78-4.14
				C743.65,368.98,743.55,369.16,743.67,369.24L743.67,369.24z"/>
		</g>
	</g>
</g>
<g>
	<g class="st41">
		<ellipse class="st42" cx="185.09" cy="631.47" rx="146.09" ry="9.83"/>
	</g>
	<g>
		<g>
			<g>
				<g>
					<g>
						<path class="st43" d="M242.65,629.7c0,0,14.97,2.56,31.05,2.56c14.91,0,29.29-2.56,29.29-2.56l-1.17-2.6
							c-5.14-11.41-24.59-6.97-29-18.75h0c-3.68,11.77-23.86,7.34-29,18.75L242.65,629.7z"/>
					</g>
					<g>
						
							<rect x="269.15" y="541.15" transform="matrix(-1 -1.224647e-16 1.224647e-16 -1 546.3865 1158.1028)" class="st43" width="8.1" height="75.8"/>
					</g>
					<g>
						<polygon class="st44" points="271.45,610.74 267.92,603.01 260.18,605.86 262.33,613.81 						"/>
					</g>
					<g>
						<path class="st45" d="M271.43,610.62l1.86,6.31l-8.18,2.59c0,0-18.47,7.76-21.91,4.16c-1.58-1.65,4.44-3.27,8.3-5.83
							s9.92-6.16,9.92-6.16S266.74,611.88,271.43,610.62z"/>
					</g>
					<g>
						<polygon class="st44" points="230.56,622.15 229.35,613.74 221.12,614.29 220.94,622.52 						"/>
					</g>
					<g>
						<path class="st45" d="M230.58,622.03v6.58l-8.58,0.17c0,0-19.91,2.22-22.2-2.2c-1.05-2.03,5.18-1.89,9.61-3.25
							c4.42-1.36,11.26-3.11,11.26-3.11S225.72,621.92,230.58,622.03z"/>
					</g>
					<g>
						<g>
							<path class="st46" d="M156.15,477.22l11.37-3.77l10.07,2.55c5.67-1.47,7.55-1.39,19.16-4.38c9.8-2.52,21.05-7.54,21.05-7.54
								l8.34-13.98c5.4,0.49,16.73,6.38,16.73,6.38s-15.51,21.1-19.92,22.57c-4.42,1.47-34.18,5.1-45.53,3.8
								c-3.57-0.41-10.57-4.19-10.57-4.19l-8.97,1.49l-7,4.72l-1.22-1.01l2.78-3.05L156.15,477.22z"/>
						</g>
						<g>
							<path class="st47" d="M234.74,423.47c0,0,14.46,2.42,14.21,15.42c-0.16,8.47-11.77,24.28-11.77,24.28s-6.38-8.83-14.23-11.28
								c0,0,5.1-14.96,6.66-19.63C231.56,426.38,234.74,423.47,234.74,423.47z"/>
						</g>
					</g>
					<g>
						
							<rect x="258.84" y="538.94" transform="matrix(-1 -1.224647e-16 1.224647e-16 -1 546.3864 1093.3433)" class="st43" width="28.7" height="15.45"/>
					</g>
					<g>
						<path class="st43" d="M262.69,478.84c-1.41-18.69-2.42-37.42-3.04-56.15c17.74-7.9,57.31-4.37,61.01,7.35
							c3.93,12.43-11.04,47.83-11.04,61.08c0,13.25,5.15,22.81,5.89,28.7c0.74,5.89-2.94,10.3-2.94,10.3H267.2
							C266.05,513,263.98,495.91,262.69,478.84z"/>
					</g>
					<g>
						<path class="st48" d="M262.69,478.84c-1.47-19.48-2.5-39-3.12-58.52c19.5-4.56,50.48-0.59,53.73,9.72
							c3.93,12.43-11.04,47.83-11.04,61.08c0,13.25,5.15,22.81,5.89,28.7c0.74,5.89-2.94,10.3-2.94,10.3H267.2
							C266.05,513,263.98,495.91,262.69,478.84z"/>
					</g>
					<g>
						<path class="st48" d="M227.2,544.1h77.41c4.4,0,7.96-3.56,7.96-7.96v-6.02H227.2V544.1z"/>
					</g>
					<g>
						<path class="st49" d="M243.39,497.98c0,0-40.84,24.26-43.27,34.28c-2.9,11.95,16.69,82.74,16.69,82.74
							c4.62,3.11,13.18,2.06,16.33-0.77c0,0-15.76-60.57-14.04-64.62c4.2-9.91,39.98-21.71,51.27-32.5
							c11.28-10.79,12.27-21.1,12.27-21.1L243.39,497.98z"/>
					</g>
					<g>
						<path class="st50" d="M290.08,487.13c0,0,13.91,29,1.4,40.78c-5.73,5.39-39.99,0.49-41.95,5.89l20.69,68.72
							c0,0-3.65,2.22-11.01,5.9c0,0-43.04-75.85-38.62-85.66c4.42-9.81,34.1-15.45,35.57-20.85c1.47-5.4,2.45-14.23,2.45-14.23
							L290.08,487.13z"/>
					</g>
					<g>
						<path class="st44" d="M231.07,408.46c0.89,3.37,2.47,7.08,5.77,8.17c3.04,1.01,6.27-0.62,9.02-2.26
							c3.24-1.93,6.52-4.04,8.59-7.19c3.14-4.77,5.68-10.61,5.33-16.31c-0.12-2.02-3.08-4.49-4.3-6.1
							c-0.86-1.13-2.15-1.86-3.44-2.47c-3.06-1.46-6.32-2.48-9.67-3.02c-5.58-0.91-11.79,0.34-12.91,6.47
							C228.13,393.05,229.2,401.36,231.07,408.46z"/>
					</g>
					<g>
						<path class="st51" d="M239.23,395.46c0,0.84,0.68,1.53,1.53,1.53c0.84,0,1.53-0.68,1.53-1.53c0-0.84-0.68-1.53-1.53-1.53
							C239.91,393.93,239.23,394.62,239.23,395.46z"/>
					</g>
					<g>
						<path class="st51" d="M230.56,395.46c0,0.84,0.68,1.53,1.53,1.53c0.84,0,1.53-0.68,1.53-1.53c0-0.84-0.68-1.53-1.53-1.53
							C231.25,393.93,230.56,394.62,230.56,395.46z"/>
					</g>
					<g>
						<g>
							<path class="st51" d="M242.12,401.01c-2.94,0-5.32-2.38-5.32-5.32c0-2.93,2.39-5.32,5.32-5.32c2.94,0,5.32,2.38,5.32,5.32
								C247.44,398.63,245.05,401.01,242.12,401.01z M242.12,391.37c-2.39,0-4.34,1.94-4.34,4.33c0,2.39,1.95,4.33,4.34,4.33
								c2.39,0,4.34-1.94,4.34-4.33C246.46,393.31,244.51,391.37,242.12,391.37z"/>
						</g>
						<g>
							<path class="st51" d="M234.1,392.87l-0.79-0.59c0.65-0.86,1.62-1.38,2.72-1.44c1.19-0.07,2.39,0.41,3.22,1.29l-0.71,0.68
								c-0.63-0.67-1.56-1.03-2.46-0.98C235.29,391.86,234.58,392.24,234.1,392.87z"/>
						</g>
						<g>
							<path class="st51" d="M230.38,401.01c-2.94,0-5.32-2.38-5.32-5.32c0-2.93,2.39-5.32,5.32-5.32c2.94,0,5.32,2.38,5.32,5.32
								C235.7,398.63,233.31,401.01,230.38,401.01z M230.38,391.37c-2.39,0-4.34,1.94-4.34,4.33c0,2.39,1.95,4.33,4.34,4.33
								c2.39,0,4.34-1.94,4.34-4.33C234.72,393.31,232.77,391.37,230.38,391.37z"/>
						</g>
					</g>
					<g>
						<path class="st44" d="M270.43,417.64c0,0-0.06-1.1-3.99-2.08c-1.13-0.28-2.53-0.28-3.43-1.07c-3.18-2.78-6.09-7.95-7.18-11.76
							c-0.16-0.56-0.32-1.16-0.17-1.73c-2.65,2.25-5.22,4.6-7.68,7.05c-0.84,0.84-5.95,0.36-5.34,1.5c0.17,0.32,1.47,3.29,2.75,6.18
							c-2.48,1.62-5.21,3.74-5.21,3.74l-3.43,19.13l10.06,5.64c0,0,11.28-2.45,18.64-6.38
							C272.83,433.96,270.43,417.64,270.43,417.64z"/>
					</g>
					<g>
						<path class="st52" d="M266.45,415.56c0,0-2.94,5.4-10.3,8.59c-7.36,3.19-13.98-6.38-13.98-6.38l-7.43,5.7
							c0,0-0.67,26.08,2.52,40.31c3.19,14.23,6.13,34.2,6.13,34.2s3.29,4.82,7.49,5.11c5.14,0.35,12.23-3.68,23.42-1.67
							c12.42,2.23,21.66,0.27,21.66,0.27s-9.55-46.67-11.76-55.99c-2.21-9.32-7.94-28.42-7.94-28.42S271.35,416.05,266.45,415.56z"
							/>
					</g>
					<g>
						<g>
							<path class="st43" d="M136.49,485.04h42.93v-3.7h-45.94v0.7C133.48,483.7,134.83,485.04,136.49,485.04z"/>
						</g>
						<g>
							<path class="st48" d="M150.08,439.12c1.28,0,2.42,0.8,2.85,2l14.59,40.27l-0.9,0.38l0.24,0.7l-33.37-1.13l-14.2-38.13
								c-0.74-1.98,0.73-4.09,2.84-4.09L150.08,439.12z"/>
						</g>
						<g>
							<path class="st43" d="M138.66,462.96c0.99,3.8,2.93,6.83,4.33,6.77c1.4-0.06,1.74-3.19,0.75-6.99
								c-0.99-3.8-2.93-6.83-4.33-6.77C138.01,456.03,137.67,459.16,138.66,462.96z"/>
						</g>
					</g>
					<g>
						<g>
							<path class="st51" d="M236.07,392.16c0.06,2.94-1.13,5.15-2.36,7.73c-0.54,1.13-1,2.67-0.55,3.91
								c0.06,0.18,0.22,0.33,0.42,0.32c1.14-0.03,2.45-0.82,3.48-1.28c0.43-0.19,0.12-0.92-0.32-0.76
								c-0.49,0.18-0.98,0.43-1.48,0.57c-1.06,0.29-1.24,0.46-1.28-0.66c-0.05-1.39,1.18-2.89,1.7-4.15
								c0.76-1.85,1.04-3.69,0.88-5.67C236.53,391.85,236.07,391.84,236.07,392.16L236.07,392.16z"/>
						</g>
					</g>
					<g>
						<g>
							<path class="st51" d="M240.02,389.45c0.6,0.2,1.24,0.18,1.87,0.24c0.66,0.06,1.31,0.15,1.97,0.23c0.85,0.1,1.05-1.37,0.2-1.5
								c-1.24-0.2-2.8-0.51-4.04-0.2C239.38,388.38,239.44,389.26,240.02,389.45L240.02,389.45z"/>
						</g>
					</g>
					<g>
						<g>
							<path class="st51" d="M230.23,389.48c1.04,0.17,2.1-0.01,3.16,0.06c0.99,0.07,0.96-1.42,0-1.52
								c-1.09-0.12-2.37-0.09-3.27,0.6C229.84,388.83,229.78,389.4,230.23,389.48L230.23,389.48z"/>
						</g>
					</g>
					<g>
						<g>
							<path class="st51" d="M246.96,394.72c1.04-0.12,2.02-0.52,3.02-0.83c0.99-0.31,2.08-0.53,2.96-1.07
								c0.29-0.18,0.18-0.66-0.18-0.66c-1.04,0.02-2.08,0.43-3.05,0.76c-0.99,0.33-2.04,0.62-2.92,1.2
								C246.56,394.27,246.62,394.76,246.96,394.72L246.96,394.72z"/>
						</g>
					</g>
					<g>
						<g>
							<path class="st50" d="M239.32,387.03c-4.77-0.31-9.79-0.34-13.97-2.52c-2.03-1.06-3.85-2.74-4.24-4.87
								c-0.39-2.13,1.17-4.59,3.49-4.75c0.48-0.03,1,0.02,1.4-0.22c0.51-0.31,0.6-0.96,0.67-1.53c0.52-3.78,3.7-7.6,7.81-7.51
								c3.35,0.08,6.48,2.66,9.72,1.88c1-0.24,1.88-0.78,2.79-1.23c2.76-1.33,6-1.77,9.05-1.23c3.22,0.57,6.63,3.11,5.85,6.06
								c-0.26,0.99-0.97,1.84-1.16,2.84c-0.67,3.57,5.01,5.35,6.14,8.82c1.02,3.16-2.1,6.3-1.86,9.59c0.13,1.83,1.2,3.98-0.19,5.28
								c-0.74,0.69-2.01,0.87-2.51,1.73c-0.68,1.17,0.58,2.51,0.7,3.83c0.14,1.65-1.74,3.03-3.52,2.89
								c-1.77-0.14-3.25-1.45-3.95-2.97c-0.7-1.52-0.75-3.22-0.69-4.87c3-0.84,4.85-5.79,2.03-7.06c-1.51-0.67-3.11,0.96-3.68,2.35
								C250.22,388.82,245.46,387.03,239.32,387.03z"/>
						</g>
						<g>
							<path class="st50" d="M251.51,394.65c-0.99,2.28-1.98,4.57-2.97,6.85c-0.4,0.91-0.82,1.86-1.58,2.51
								c-1.16,0.99-2.86,1.05-4.35,0.75c-1.49-0.3-4.35-1.12-5.87-0.99c-3.47,0.3-6.02,1.96-6.24,2.38
								c-0.45,0.85,0.18,2.17,0.19,3.12c0.01,1.01-0.15,2.04-0.66,2.9c-0.35,0.58-0.84,1.05-1.3,1.54
								c-1.23,1.31-2.34,2.95-2.24,4.74c0.14,2.46,2.4,4.17,4.45,5.53c1.31,0.87,2.67,1.76,4.22,2.05c1.04,0.19,2.11,0.1,3.16,0.01
								c2.19-0.19,4.4-0.39,6.51-1.04c2.1-0.65,4.12-1.78,5.44-3.54c1.13-1.5,1.68-3.35,2.21-5.15c0.85-2.92,1.69-5.88,1.79-8.91
								c0.1-2.85-0.45-5.67-0.74-8.5c-0.25-2.47-0.3-4.97-0.16-7.45c0.02-0.3,0.05-1.03-0.4-1.1c-0.49-0.07-0.32,0.68-0.39,0.98
								C252.33,392.5,251.99,393.55,251.51,394.65z"/>
						</g>
						<g>
							<path class="st44" d="M233.21,407.68c-0.47,1.02-0.23,2.32,0.58,3.1c0.36,0.35,0.86,0.61,1.36,0.55
								c0.5-0.06,0.97-0.5,0.93-1.01c-0.02-0.19-0.09-0.39,0.01-0.55c0.1-0.15,0.31-0.18,0.49-0.19c0.68-0.04,1.5,0.01,1.82,0.61
								c0.1,0.18,0.13,0.39,0.24,0.57c0.26,0.42,0.84,0.47,1.33,0.43c0.7-0.06,1.4-0.21,2.06-0.46c0.34-0.13,0.67-0.28,0.92-0.54
								c0.25-0.26,0.38-0.65,0.26-0.99c-0.1-0.28-0.35-0.47-0.6-0.65C240.49,407.04,234.92,403.98,233.21,407.68z"/>
						</g>
						<g>
							<g>
								<path class="st51" d="M234.26,407.66c1.11,0.7,3.45,0.74,4.53-0.08c0.26-0.19,0.2-0.65-0.18-0.65c-0.7,0-1.38,0.28-2.1,0.32
									c-0.71,0.04-1.41-0.11-2.12-0.07C234.14,407.19,234.04,407.52,234.26,407.66L234.26,407.66z"/>
							</g>
						</g>
					</g>
				</g>
				<g>
					<path class="st48" d="M264.22,534.3c0,0-1.41-39.59,7.42-42.21c8.84-2.61,28.28-1.87,28.28-1.87l1.77,7.1
						c0,0-25.46-1.87-28.99,2.99c-3.54,4.86,0,34.36,0,34.36L264.22,534.3z"/>
				</g>
			</g>
			<g>
				<g>
					<path class="st44" d="M193,475.99l11.37-3.77l10.07,2.55c5.67-1.47,7.55-1.39,19.16-4.38c9.8-2.52,21.05-7.54,21.05-7.54
						l12.77-19.08c5.4,0.49,12.3,11.47,12.3,11.47s-15.51,21.1-19.92,22.57c-4.42,1.47-38.1,5.38-49.45,4.08
						c-3.57-0.41-9.9-4.32-9.9-4.32l-5.73,1.34l-7,4.72l-1.22-1.01l2.78-3.05L193,475.99z"/>
				</g>
				<g>
					<path class="st47" d="M276.26,417.28c0,0,15.21,2.45,14.96,15.45c-0.16,8.47-11.77,24.28-11.77,24.28s-6.38-8.83-14.23-11.28
						c0,0,6.13-12.02,6.62-16.93C272.33,423.9,276.26,417.28,276.26,417.28z"/>
				</g>
				<g>
					<g>
						<path class="st48" d="M170.52,485.04h42.93v-3.7h-45.94v0.7C167.52,483.7,168.86,485.04,170.52,485.04z"/>
					</g>
					<g>
						
							<rect x="193.86" y="482.52" transform="matrix(-1 -1.224647e-16 1.224647e-16 -1 403.0267 966.1796)" class="st43" width="15.31" height="1.15"/>
					</g>
					<g>
						
							<rect x="189.29" y="482.52" transform="matrix(-1 -1.224647e-16 1.224647e-16 -1 380.8536 966.1796)" class="st43" width="2.27" height="1.15"/>
					</g>
				</g>
			</g>
		</g>
		<g>
			<g>
				<g>
					<polygon class="st48" points="97.37,469.49 95.3,454.29 96.05,451.52 97.7,453.84 99.61,469.34 					"/>
				</g>
				<g>
					<polygon class="st48" points="107.37,470.49 109.53,455.3 110.99,452.84 111.96,455.52 109.57,470.95 					"/>
				</g>
				<g>
					<polygon class="st48" points="100.4,471.66 100.59,456.1 101.91,453.65 103.05,456.14 102.84,471.68 					"/>
				</g>
			</g>
			<g>
				<polygon class="st47" points="109.64,486.68 97.87,486.68 95.74,467.17 111.19,467.17 				"/>
			</g>
		</g>
		<g>
			<g>
				<polygon class="st48" points="261.61,634.25 264.43,634.25 232.67,496.07 226.69,496.07 				"/>
			</g>
			<g>
				<polygon class="st48" points="175.55,632.81 178.37,632.81 198.81,496.07 192.82,496.07 				"/>
			</g>
			<g>
				<polygon class="st48" points="132.75,633.64 135.57,633.64 113.12,496.07 107.14,496.07 				"/>
			</g>
			<g>
				<polygon class="st48" points="53.63,632.18 56.45,632.18 83.47,496.07 77.49,496.07 				"/>
			</g>
			<g>
				
					<rect x="100.59" y="489.89" transform="matrix(-1 -1.224647e-16 1.224647e-16 -1 350.1615 985.9653)" class="st53" width="148.99" height="6.18"/>
			</g>
			<g>
				
					<rect x="52.81" y="489.89" transform="matrix(-1 -1.224647e-16 1.224647e-16 -1 243.0148 985.9653)" class="st54" width="137.39" height="6.18"/>
			</g>
			<g>
				
					<rect x="103.9" y="484.73" transform="matrix(-1 -1.224647e-16 1.224647e-16 -1 367.1436 977.7205)" class="st54" width="159.34" height="8.27"/>
			</g>
			<g>
				
					<rect x="31.92" y="484.73" transform="matrix(-1 -1.224647e-16 1.224647e-16 -1 211.5912 977.7205)" class="st55" width="147.75" height="8.27"/>
			</g>
		</g>
	</g>
</g>
<g>
	<g>
		<g>
			<g>
				<path class="st56" d="M526.76,481.95c0,7.2,5.73,13.03,12.8,13.03l3.2-6.19c7.07,0,12.8-10.84,12.8-18.03v-4.89
					c0-7.19-5.73-13.03-12.8-13.03h-3.2c-7.07,0-12.8,5.83-12.8,13.03V481.95z"/>
				<path class="st56" d="M553.5,465.68c0.7,0,1.39,0.05,2.06,0.14c-0.13,0.86-0.22,1.74-0.22,2.64c0,8.67,6.53,15.8,14.95,16.83
					c-1.27,8.11-8.3,14.33-16.79,14.33c-9.4,0-17.02-7.6-17.02-16.97C536.48,473.27,544.1,465.68,553.5,465.68z"/>
				<path class="st57" d="M531.87,457.79c0.02,1.2,0.12,2.42,0.31,3.67c1.29,8.37,6.29,14.72,11.74,15.5
					c0.17,3.79,0.92,7.2,1.82,10.1c1.02,3.3,7.93,8.2,7.93,8.2c0.92,5.84-21.72,13-21.26,12.06c0.46-0.94,5.28-7.82,6.85-14.14
					c1.1-4.4-0.31-8.02-1.96-10.53c-3.06-3.66-7.48-3.6-7.48-3.6c-0.42,0-0.81-0.19-1.08-0.48c-0.26-0.86-0.4-1.78-0.4-2.72v-10.75
					C528.34,462.12,529.73,459.47,531.87,457.79z"/>
				<path class="st58" d="M540.46,543.63c2.16,5.39,13.78,5.39,15.94,0l12.34-38.9c2.16-5.39-0.2-9.8-5.24-9.8h-10.67
					c0,0-5.33,8.89-9.81,8.32c-4.76-0.6-4.39-8.32-4.39-8.32h-3.65c-5.04,0-7.4,4.41-5.24,9.8L540.46,543.63z"/>
				<path class="st58" d="M529.33,498.47l-12.26,37.61c0,0-0.84,2.6,1.73,0.88c3.61-2.41,11.72-11.18,18.92-28.62
					C543.02,495.53,532.59,497.75,529.33,498.47z"/>
				<path class="st57" d="M526.56,641.32c0.58-2.09,0.99-4.21,1.5-6.26c2.01-3.2,3.83-5,5.31-5.01c5.61-0.03,8.6,19.51-2.89,56.79
					c-0.64,2.07-10.69,39.56-10.71,38.06C519.53,694.59,524.48,648.89,526.56,641.32z"/>
				<path class="st57" d="M560.97,641.73c-0.45-2.12-1.05-4.19-1.54-6.25c0.31-3.78,1.1-6.24,2.4-6.95
					c4.96-2.7,16.55,13.18,23.46,51.62c0.39,2.14,8.66,40.08,7.96,38.75C579.14,692.19,562.59,649.42,560.97,641.73z"/>
				<path class="st59" d="M523.92,652.23c-0.26-1.28-0.39-2.74-0.4-4.29c0.3-8.72-0.05-17.57,1.34-34.14
					c1.36-16.08,4.47-39.87,11.16-67.38c0.65-2.81,1.44-5.22,2.34-7.19c6.08-0.86,12.26,3.35,18.56,5.16
					c2.31,4.37,4.32,9.6,5.73,15.92c6.84,28.49,10.27,44.96,12.08,58.78c1.84,13.39,2.06,24.14,2.98,31.28
					C560.32,679.81,542.41,624.99,523.92,652.23z"/>
				<g>
					<path class="st57" d="M518.66,535.11c0,0,2.56-0.78-1.13-14.82c-3.69-14.04-12.22-33.81-12.22-33.81l5.82,33.13
						C511.12,519.6,513.89,532.18,518.66,535.11z"/>
					<path class="st57" d="M509.13,497.27c-1.58-6.73,0.76-10.32,1.07-13.21c0.31-2.89,1.11-5.9,1.09-5.88
						c-2.22,2.11-1.79,4.29-2.37,5.58c-0.58,1.29-0.23,0.91-0.95-1.45c-0.41-1.34,1.18-4.24,1.96-6.24
						c0.68-1.73,0.54-2.69,0.54-2.69c0,0-1.76,2.25-2.99,4.88c-1.48,3.18-2.48,6.91-2.56,7.76c-0.17,1.55,0.75,6.08,1.88,9.2
						C508.09,498.73,510.27,502.11,509.13,497.27z"/>
					<path class="st57" d="M505.14,486.35c0,0-0.03-5.42,0.36-6.47c0.28-0.73,2.13-3.94,2.13-3.94s0.17,1.99-0.5,3.32
						C506.46,480.59,505.14,486.35,505.14,486.35z"/>
				</g>
				<path class="st60" d="M508.64,504.05c-0.04,7,2.18,17.62,6.41,28.97c0.49,1.34,1.01,2.65,1.53,3.92
					c0.8,1.96,4.14-0.73,3.97-4.32c-0.34-6.94-3.05-14.94-6.89-25.23c-0.65-1.76-1.33-3.47-2.03-5.13
					C510.61,502.77,509.61,503.37,508.64,504.05z"/>
			</g>
			<path class="st57" d="M502.05,724.72c0,0,2.04-0.01,7.2,1.11c3.02,0.66,5.13,1.58,6.57,0.94c2.39-1.05,4.21-11.69,4.53-19.42
				c0.04-0.87,5.19-2.89,4.95-1.93c-3.1,12.48-3.27,20.37-3.57,22.11c-0.51,2.95-1.84,5.61-3.25,5.7
				c-2.79,0.19-15.63-5.8-16.66-6.34C500.79,726.35,501.83,724.33,502.05,724.72z"/>
			<path class="st61" d="M599.07,726.93c1.21,7.5,0.62,13.84-1.33,14.17c-1.95,0.33-4.51-5.49-5.73-12.99
				c-1.21-7.5-0.62-13.84,1.32-14.17C595.28,713.61,597.85,719.43,599.07,726.93z"/>
			<path class="st57" d="M597.57,723.05c1.68,5.34,0.96,10.6-0.99,10.93c-1.95,0.32-4.04-3.77-4.69-9.34
				c-0.83-7.04-0.39-10.01-2.64-13.84c-2.31-3.94-2.65-7.88-2.14-8.48c0.5-0.59,3.12,0.89,3.47,2.94c0.5,2.94,1.76,5.54,2.25,6.35
				C594.21,713.87,595.83,717.5,597.57,723.05z"/>
			<path class="st61" d="M505.12,725.03c-2.05,2.85,8.03,5.66,10.84,5.9c2.68,0.22,4.3,0.62,4.3,0.62c0.1,0.05,0.2,0.07,0.3,0.11
				c-0.02,0.08-0.03,0.16-0.06,0.24c-0.72,1.74-0.92,4.38-3.65,3.2l-17.12-7.33C485.73,721.77,505.17,724.96,505.12,725.03z"/>
		</g>
		<g>
			<g>
				<g>
					<path class="st62" d="M631.72,526.2c5.23,0.92,8.75,5.93,7.84,11.14l-9.92,56.72c-0.92,5.23-5.93,8.75-11.16,7.84
						l-134.37-23.51c-5.22-0.91-8.74-5.93-7.83-11.16l9.92-56.72c0.91-5.21,5.93-8.73,11.15-7.82L631.72,526.2z"/>
				</g>
				<g>
					<path class="st56" d="M628.44,592.35c-0.91,5.23-5.94,8.75-11.16,7.84l-131.44-23c-5.22-0.91-8.74-5.94-7.83-11.16l9.41-53.78
						c0.92-5.23,5.94-8.76,11.15-7.85l131.44,23c5.22,0.91,8.75,5.93,7.84,11.17L628.44,592.35z"/>
				</g>
				<g>
					<path class="st63" d="M489.04,549.53c0.7,0.12,1.18,0.79,1.05,1.5c-0.12,0.7-0.8,1.17-1.5,1.05c-0.7-0.12-1.18-0.8-1.06-1.5
						C487.66,549.88,488.34,549.41,489.04,549.53z"/>
					<path class="st63" d="M486.3,539.05c0.45,0.08,0.76,0.51,0.68,0.97c-0.08,0.45-0.51,0.76-0.96,0.68
						c-0.46-0.08-0.76-0.52-0.68-0.97C485.42,539.27,485.85,538.97,486.3,539.05z"/>
					<path class="st63" d="M491.36,535.57c0.34,0.06,0.55,0.39,0.5,0.71l-1.53,8.77c-0.06,0.35-0.37,0.57-0.71,0.51l0,0
						c-0.34-0.06-0.56-0.38-0.5-0.72l1.53-8.77C490.7,535.75,491.03,535.51,491.36,535.57L491.36,535.57z"/>
				</g>
				<path class="st63" d="M627.37,559.06c0.61,0.11,1,0.68,0.9,1.28l-1.4,8.03c-0.11,0.62-0.68,1.02-1.28,0.91l-2.19-0.38
					c-0.61-0.11-1.02-0.68-0.91-1.29l1.41-8.03c0.1-0.6,0.68-1,1.29-0.89L627.37,559.06z"/>
				<polygon class="st56" points="498.76,579.55 498.76,579.55 498.44,581.33 498.44,581.33 492.59,580.31 492.59,580.31 
					492.9,578.53 492.9,578.53 				"/>
				<polygon class="st56" points="514.09,582.24 514.09,582.24 513.78,584.01 513.78,584.01 503.91,582.29 503.91,582.29 
					504.22,580.51 504.22,580.51 				"/>
				<polygon class="st56" points="525.78,584.28 525.78,584.28 525.47,586.06 525.47,586.06 516.06,584.41 516.06,584.41 
					516.37,582.63 516.37,582.63 				"/>
				<g>
					
						<rect x="523.88" y="492.45" transform="matrix(0.1723 -0.985 0.985 0.1723 -82.529 1006.3953)" class="st64" width="67.47" height="119.72"/>
				</g>
			</g>
			<g>
				<g>
					
						<rect x="510.11" y="528.52" transform="matrix(0.1724 -0.985 0.985 0.1724 -93.4319 987.9799)" class="st11" width="62.21" height="42.13"/>
				</g>
			</g>
			<g>
				
					<rect x="557.07" y="531.44" transform="matrix(0.1723 -0.985 0.985 0.1723 -62.6508 1041.0471)" class="st65" width="62.21" height="52.72"/>
			</g>
			<g>
				<g>
					
						<rect x="486.34" y="549.02" transform="matrix(0.1723 -0.985 0.985 0.1723 -126.7719 958.0255)" class="st11" width="40.74" height="10.87"/>
				</g>
			</g>
			<g>
				<g>
					
						<rect x="506.89" y="513.7" transform="matrix(0.1723 -0.985 0.985 0.1723 -86.8672 934.8919)" class="st66" width="11.98" height="10.87"/>
				</g>
			</g>
			<g>
				<g>
					<g>
						
							<rect x="555.26" y="560.52" transform="matrix(0.1723 -0.985 0.985 0.1723 -79.7601 1030.3425)" class="st66" width="35.98" height="4.22"/>
					</g>
					<g>
						
							<rect x="558.02" y="555.81" transform="matrix(0.1723 -0.985 0.985 0.1723 -66.6805 1035.4301)" class="st67" width="49.6" height="3.17"/>
					</g>
					<g>
						
							<rect x="564.88" y="556.57" transform="matrix(0.1723 -0.985 0.985 0.1723 -61.3259 1043.3314)" class="st67" width="50.64" height="3.17"/>
					</g>
					<g>
						
							<rect x="585.06" y="560" transform="matrix(0.1723 -0.985 0.985 0.1723 -55.8605 1064.7881)" class="st66" width="41.25" height="11.28"/>
					</g>
					<g>
						
							<rect x="594.39" y="564.05" transform="matrix(0.1724 -0.985 0.985 0.1724 -55.8874 1064.7557)" class="st32" width="22.58" height="3.17"/>
					</g>
				</g>
			</g>
		</g>
		<path class="st58" d="M581.51,541.35c0,0,2.82,0.49,1.85,12.79c-0.42,5.25-1.42,11.15-2.43,16.2c-1.36,6.77-3.39-1.16-3.39-1.16
			l-0.69-13.99C576.86,555.18,577.17,544.2,581.51,541.35z"/>
		<path class="st58" d="M568.33,496.37c7.67,9.42,15.58,49.39,15.58,49.39s-0.4,15.46-18.34-35.45
			C560.17,495.02,566.44,494.04,568.33,496.37z"/>
		<path class="st57" d="M574.98,595.93l2.73-2.2l1.67-2.34l1.09-4.56c0,0,0.57-4.97,0.12-6.93c-0.45-1.95,0.29-9.4,0.17-10.34
			c-0.13-0.94-2.79-1.57-2.79-1.57s-0.32,6.85-0.28,10.01c0.04,3.16-1.43,7.69-1.46,8.93c-0.05,2.12,0.46,3.87,0.46,3.87
			s0.65-3.25,0.73-4.13c0.07-0.87,0.99-0.33,0.99-0.33s-0.44,4.57-1.04,5.71c-0.6,1.14-1.53,1.94-1.53,1.94L574.98,595.93z"/>
	</g>
</g>
</svg>
